<svg xmlns="http://www.w3.org/2000/svg" width="900" height="1200" viewBox="0 0 600 800">
<title id="title">玉米 Zea mays · 结实初期全株</title>
<desc id="desc">独立原创植物插画。粗壮节秆、互生带状叶及叶鞘、顶生雄穗、苞叶包裹的腋生果穗与花丝、基部支柱根和须根。地下根系为压缩示意。</desc>
<defs>
 <linearGradient id="stem-light"><stop stop-color="#557132"/><stop offset=".35" stop-color="#9eaf59"/><stop offset=".62" stop-color="#b4bd70"/><stop offset="1" stop-color="#587c3b"/></linearGradient>
 <linearGradient id="leaf-green" x1="0" y1="0" x2=".35" y2="1"><stop stop-color="#729443"/><stop offset=".48" stop-color="#548442"/><stop offset="1" stop-color="#315f3d"/></linearGradient>
 <linearGradient id="leaf-light" x1="0" y1="0" x2=".3" y2="1"><stop stop-color="#a2b666"/><stop offset=".5" stop-color="#749c4c"/><stop offset="1" stop-color="#416e3e"/></linearGradient>
 <linearGradient id="husk-light"><stop stop-color="#557d3a"/><stop offset=".38" stop-color="#b4c76c"/><stop offset=".7" stop-color="#98b655"/><stop offset="1" stop-color="#527c36"/></linearGradient>
</defs>
<g id="whole-maize">
<g id="whole-maize-roots" fill="none" stroke-linecap="round">
<path d="M292.6 639.0 C281.7 668.0 204.1 696.4 191.0 725.4" fill="none" stroke="#a38961" stroke-width="2.11" />
<path d="M268.3 664.9 q14.6 9 22.5 28.2" fill="none" stroke="#b8a382" stroke-width="0.7" />
<path d="M242.6 682.2 q-11.4 9 -17.5 20.3" fill="none" stroke="#b8a382" stroke-width="0.7" />
<path d="M216.7 699.4 q10.6 9 16.4 26.7" fill="none" stroke="#b8a382" stroke-width="0.7" />
<path d="M305.6 637.5 C297.0 666.5 223.8 700.7 213.4 729.7" fill="none" stroke="#b8a078" stroke-width="1.51" />
<path d="M283.9 664.7 q-15.3 9 -23.5 34.8" fill="none" stroke="#b8a382" stroke-width="0.7" />
<path d="M260.2 683.6 q10.0 9 15.4 21.7" fill="none" stroke="#b8a382" stroke-width="0.7" />
<path d="M236.3 702.5 q-11.5 9 -17.7 28.9" fill="none" stroke="#b8a382" stroke-width="0.7" />
<path d="M304.4 638.0 C296.4 667.0 229.9 707.7 220.3 736.7" fill="none" stroke="#917957" stroke-width="1.75" />
<path d="M284.5 666.6 q6.4 9 9.8 21.1" fill="none" stroke="#b8a382" stroke-width="0.7" />
<path d="M262.9 687.4 q-16.3 9 -25.0 35.1" fill="none" stroke="#b8a382" stroke-width="0.7" />
<path d="M241.2 708.1 q9.1 9 14.0 36.0" fill="none" stroke="#b8a382" stroke-width="0.7" />
<path d="M300.4 633.0 C294.2 662.0 245.4 712.3 238.0 741.3" fill="none" stroke="#a38961" stroke-width="2.42" />
<path d="M285.6 663.7 q-13.4 9 -20.5 21.7" fill="none" stroke="#b8a382" stroke-width="0.7" />
<path d="M269.6 687.2 q12.7 9 19.6 34.2" fill="none" stroke="#b8a382" stroke-width="0.7" />
<path d="M253.6 710.6 q-15.8 9 -24.3 26.0" fill="none" stroke="#b8a382" stroke-width="0.7" />
<path d="M300.5 639.0 C294.2 668.0 244.6 722.1 237.0 751.1" fill="none" stroke="#b8a078" stroke-width="2.24" />
<path d="M285.4 670.5 q6.4 9 9.9 30.6" fill="none" stroke="#b8a382" stroke-width="0.7" />
<path d="M269.2 695.1 q-9.9 9 -15.3 23.3" fill="none" stroke="#b8a382" stroke-width="0.7" />
<path d="M252.9 719.6 q12.5 9 19.3 37.4" fill="none" stroke="#b8a382" stroke-width="0.7" />
<path d="M300.8 633.1 C296.3 662.1 259.8 723.6 254.3 752.6" fill="none" stroke="#917957" stroke-width="2.45" />
<path d="M289.8 666.3 q-13.8 9 -21.2 20.7" fill="none" stroke="#b8a382" stroke-width="0.7" />
<path d="M277.9 692.9 q16.5 9 25.4 30.8" fill="none" stroke="#b8a382" stroke-width="0.7" />
<path d="M265.9 719.5 q-6.8 9 -10.4 22.3" fill="none" stroke="#b8a382" stroke-width="0.7" />
<path d="M293.4 638.6 C289.3 667.6 264.4 726.0 259.6 755.0" fill="none" stroke="#a38961" stroke-width="1.43" />
<path d="M285.2 671.1 q11.8 9 18.1 28.0" fill="none" stroke="#b8a382" stroke-width="0.7" />
<path d="M276.8 696.8 q-6.3 9 -9.6 20.0" fill="none" stroke="#b8a382" stroke-width="0.7" />
<path d="M268.3 722.5 q15.8 9 24.4 37.6" fill="none" stroke="#b8a382" stroke-width="0.7" />
<path d="M294.0 639.3 C292.6 668.3 287.7 736.0 286.0 765.0" fill="none" stroke="#b8a078" stroke-width="2.36" />
<path d="M292.0 673.8 q-9.6 9 -14.7 32.9" fill="none" stroke="#b8a382" stroke-width="0.7" />
<path d="M290.1 702.2 q11.4 9 17.5 36.9" fill="none" stroke="#b8a382" stroke-width="0.7" />
<path d="M288.2 730.5 q-13.6 9 -21.0 35.2" fill="none" stroke="#b8a382" stroke-width="0.7" />
<path d="M305.7 635.9 C305.0 664.9 293.3 706.7 292.4 735.7" fill="none" stroke="#917957" stroke-width="1.55" />
<path d="M302.7 664.7 q16.2 9 24.9 27.3" fill="none" stroke="#b8a382" stroke-width="0.7" />
<path d="M299.1 685.8 q-13.4 9 -20.6 30.4" fill="none" stroke="#b8a382" stroke-width="0.7" />
<path d="M295.6 706.8 q8.7 9 13.4 30.6" fill="none" stroke="#b8a382" stroke-width="0.7" />
<path d="M306.6 635.3 C306.3 664.3 297.6 711.4 297.2 740.4" fill="none" stroke="#a38961" stroke-width="1.51" />
<path d="M304.5 665.3 q-15.0 9 -23.1 32.7" fill="none" stroke="#b8a382" stroke-width="0.7" />
<path d="M301.9 687.8 q16.5 9 25.4 32.1" fill="none" stroke="#b8a382" stroke-width="0.7" />
<path d="M299.4 710.4 q-16.4 9 -25.3 24.0" fill="none" stroke="#b8a382" stroke-width="0.7" />
<path d="M295.0 634.2 C295.9 663.2 308.2 740.4 309.3 769.4" fill="none" stroke="#b8a078" stroke-width="1.57" />
<path d="M298.3 670.7 q10.9 9 16.8 21.1" fill="none" stroke="#b8a382" stroke-width="0.7" />
<path d="M302.1 701.8 q-6.2 9 -9.5 29.8" fill="none" stroke="#b8a382" stroke-width="0.7" />
<path d="M305.9 732.9 q12.6 9 19.4 29.2" fill="none" stroke="#b8a382" stroke-width="0.7" />
<path d="M306.6 640.6 C309.7 669.6 327.2 719.6 330.9 748.6" fill="none" stroke="#917957" stroke-width="1.62" />
<path d="M312.5 671.2 q-7.3 9 -11.2 33.8" fill="none" stroke="#b8a382" stroke-width="0.7" />
<path d="M318.5 694.6 q7.6 9 11.6 20.1" fill="none" stroke="#b8a382" stroke-width="0.7" />
<path d="M324.6 717.9 q-13.6 9 -20.9 22.2" fill="none" stroke="#b8a382" stroke-width="0.7" />
<path d="M302.0 634.0 C305.2 663.0 328.9 697.7 332.9 726.7" fill="none" stroke="#a38961" stroke-width="1.75" />
<path d="M309.3 661.3 q9.5 9 14.6 24.7" fill="none" stroke="#b8a382" stroke-width="0.7" />
<path d="M317.2 680.3 q-7.3 9 -11.3 30.4" fill="none" stroke="#b8a382" stroke-width="0.7" />
<path d="M325.1 699.4 q13.5 9 20.8 23.6" fill="none" stroke="#b8a382" stroke-width="0.7" />
<path d="M292.7 634.7 C297.6 663.7 343.3 703.6 349.2 732.6" fill="none" stroke="#b8a078" stroke-width="2.08" />
<path d="M306.0 663.1 q-6.7 9 -10.3 32.7" fill="none" stroke="#b8a382" stroke-width="0.7" />
<path d="M320.6 683.6 q7.4 9 11.4 24.0" fill="none" stroke="#b8a382" stroke-width="0.7" />
<path d="M335.3 704.1 q-13.9 9 -21.4 28.6" fill="none" stroke="#b8a382" stroke-width="0.7" />
<path d="M302.2 634.9 C308.2 663.9 352.8 702.0 360.0 731.0" fill="none" stroke="#917957" stroke-width="1.88" />
<path d="M316.0 662.9 q10.8 9 16.5 36.4" fill="none" stroke="#b8a382" stroke-width="0.7" />
<path d="M330.7 682.9 q-14.2 9 -21.8 29.9" fill="none" stroke="#b8a382" stroke-width="0.7" />
<path d="M345.5 702.9 q15.2 9 23.4 31.0" fill="none" stroke="#b8a382" stroke-width="0.7" />
<path d="M303.6 637.2 C310.6 666.2 361.4 696.4 369.8 725.4" fill="none" stroke="#a38961" stroke-width="2.42" />
<path d="M319.4 663.5 q-12.9 9 -19.9 34.8" fill="none" stroke="#b8a382" stroke-width="0.7" />
<path d="M336.1 681.3 q12.6 9 19.3 20.4" fill="none" stroke="#b8a382" stroke-width="0.7" />
<path d="M353.1 699.0 q-7.0 9 -10.8 35.9" fill="none" stroke="#b8a382" stroke-width="0.7" />
<path d="M303.2 641.0 C311.9 670.0 376.5 692.9 386.9 721.9" fill="none" stroke="#b8a078" stroke-width="2.48" />
<path d="M323.1 665.8 q12.6 9 19.4 33.1" fill="none" stroke="#b8a382" stroke-width="0.7" />
<path d="M344.4 681.5 q-11.6 9 -17.8 24.6" fill="none" stroke="#b8a382" stroke-width="0.7" />
<path d="M365.9 697.2 q11.2 9 17.3 28.3" fill="none" stroke="#b8a382" stroke-width="0.7" />
<path d="M296.8 635.4 C305.8 664.4 379.4 693.5 390.2 722.5" fill="none" stroke="#917957" stroke-width="1.47" />
<path d="M318.9 661.5 q-14.7 9 -22.7 26.4" fill="none" stroke="#b8a382" stroke-width="0.7" />
<path d="M342.8 679.0 q9.9 9 15.2 34.1" fill="none" stroke="#b8a382" stroke-width="0.7" />
<path d="M366.9 696.4 q-13.6 9 -20.9 28.1" fill="none" stroke="#b8a382" stroke-width="0.7" />
<path d="M297.0 640.0 C306.7 669.0 386.1 699.1 397.9 728.1" fill="none" stroke="#a38961" stroke-width="1.75" />
<path d="M320.8 666.3 q16.8 9 25.9 24.3" fill="none" stroke="#b8a382" stroke-width="0.7" />
<path d="M346.7 684.0 q-12.4 9 -19.1 29.5" fill="none" stroke="#b8a382" stroke-width="0.7" />
<path d="M372.7 701.8 q6.4 9 9.8 23.3" fill="none" stroke="#b8a382" stroke-width="0.7" />
</g>
<g id="whole-maize-culm">
<path d="M289 638 C295 513 295 370 295 234 L298 166 Q300 161 302 166 L306 237 C310 370 311 514 309 638 Q300 645 289 638Z" fill="url(#stem-light)" />
<path d="M295 228 Q300 231 305 228" fill="none" stroke="#52723a" stroke-width="2" />
<path d="M296 231 Q300 233 304 231" fill="none" stroke="#cad28b" stroke-width="1" />
<path d="M294 280 Q300 283 306 280" fill="none" stroke="#52723a" stroke-width="2" />
<path d="M295 283 Q300 285 305 283" fill="none" stroke="#cad28b" stroke-width="1" />
<path d="M293 332 Q300 335 307 332" fill="none" stroke="#52723a" stroke-width="2" />
<path d="M294 335 Q300 337 306 335" fill="none" stroke="#cad28b" stroke-width="1" />
<path d="M292.5 387 Q300 390 307.5 387" fill="none" stroke="#52723a" stroke-width="2" />
<path d="M293.5 390 Q300 392 306.5 390" fill="none" stroke="#cad28b" stroke-width="1" />
<path d="M292 444 Q300 447 308 444" fill="none" stroke="#52723a" stroke-width="2" />
<path d="M293 447 Q300 449 307 447" fill="none" stroke="#cad28b" stroke-width="1" />
<path d="M292 501 Q300 504 308 501" fill="none" stroke="#52723a" stroke-width="2" />
<path d="M293 504 Q300 506 307 504" fill="none" stroke="#cad28b" stroke-width="1" />
<path d="M291 555 Q300 558 309 555" fill="none" stroke="#52723a" stroke-width="2" />
<path d="M292 558 Q300 560 308 558" fill="none" stroke="#cad28b" stroke-width="1" />
<path d="M290 605 Q300 608 310 605" fill="none" stroke="#52723a" stroke-width="2" />
<path d="M291 608 Q300 610 309 608" fill="none" stroke="#cad28b" stroke-width="1" />
<path d="M290 631 Q300 634 310 631" fill="none" stroke="#52723a" stroke-width="2" />
<path d="M291 634 Q300 636 309 634" fill="none" stroke="#cad28b" stroke-width="1" />
</g>
<g id="whole-maize-leaves">
<g id="maize-leaf-upper-back">
<path d="M300 232 C318 205 334 172 346 159 C357 145 370 145 381 154 C364 149 360 173 352 194 C339 223 319 241 300 239Z" fill="#709750" />
<path d="M301 236 C329 216 346 161 371 151" fill="none" stroke="#c5d198" stroke-width="1.35" opacity=".83"/>
<path d="M296 235.0 Q301 244.0 307 237.0 L307 258.0 Q302 264.0 296 258.0Z" fill="#8da652" />
<path d="M298 240.0 L298 258.0" fill="none" stroke="#d1d798" stroke-width="0.9" />
</g>
<g id="maize-leaf-upper-left">
<path d="M299 274 C284 256 276 226 255 209 C228 187 213 201 207 228 C205 235 206 243 207 251 C201 223 201 201 216 192 C244 177 270 207 284 232 C290 245 296 256 303 265Z" fill="url(#leaf-green)" />
<path d="M300 269 C283 247 257 182 222 196 C208 204 207 224 207 244" fill="none" stroke="#c5d198" stroke-width="1.35" opacity=".83"/>
<path d="M296 277.0 Q301 286.0 307 279.0 L307 300.0 Q302 306.0 296 300.0Z" fill="#8da652" />
<path d="M298 282.0 L298 300.0" fill="none" stroke="#d1d798" stroke-width="0.9" />
</g>
<g id="maize-leaf-high-right">
<path d="M301 317 C325 295 349 244 378 224 C402 207 425 216 437 240 C444 256 446 274 444 294 C438 263 426 237 411 237 C392 235 378 266 359 288 C342 307 322 326 303 325Z" fill="url(#leaf-light)" />
<path d="M302 320 C342 287 378 210 410 226 C433 238 441 268 444 292" fill="none" stroke="#c5d198" stroke-width="1.35" opacity=".83"/>
<path d="M296 320.0 Q301 329.0 307 322.0 L307 343.0 Q302 349.0 296 343.0Z" fill="#8da652" />
<path d="M298 325.0 L298 343.0" fill="none" stroke="#d1d798" stroke-width="0.9" />
</g>
<g id="maize-leaf-high-left">
<path d="M300 359 C264 336 238 288 198 270 C158 251 130 259 113 286 C105 301 103 321 107 340 C109 310 122 282 142 284 C170 285 184 310 208 329 C238 351 270 363 300 367Z" fill="url(#leaf-green)" />
<path d="M291 362 C249 352 211 331 187 311 C214 325 251 350 291 362Z" fill="#b2c777" />
<path d="M300 363 C250 339 204 266 156 272 C123 274 111 302 107 337" fill="none" stroke="#c5d198" stroke-width="1.35" opacity=".83"/>
<path d="M296 362.0 Q301 371.0 307 364.0 L307 385.0 Q302 391.0 296 385.0Z" fill="#8da652" />
<path d="M298 367.0 L298 385.0" fill="none" stroke="#d1d798" stroke-width="0.9" />
</g>
<g id="maize-leaf-mid-right">
<path d="M304 402 C344 368 394 317 438 310 C482 300 506 325 513 359 C517 377 516 394 514 409 C510 375 497 344 477 343 C443 338 420 365 386 383 C354 399 329 410 305 412Z" fill="url(#leaf-green)" />
<path d="M312 408 C358 399 402 376 431 358 C397 386 350 409 312 408Z" fill="#b2c777" />
<path d="M305 407 C357 383 425 303 470 322 C499 334 511 372 514 406" fill="none" stroke="#c5d198" stroke-width="1.35" opacity=".83"/>
<path d="M296 405.0 Q301 414.0 307 407.0 L307 428.0 Q302 434.0 296 428.0Z" fill="#8da652" />
<path d="M298 410.0 L298 428.0" fill="none" stroke="#d1d798" stroke-width="0.9" />
</g>
<g id="maize-leaf-mid-left">
<path d="M299 450 C270 422 224 382 178 376 C139 368 107 380 89 400 C76 416 72 438 75 459 C82 431 102 407 127 409 C158 410 182 430 212 443 C241 455 271 462 300 459Z" fill="url(#leaf-light)" />
<path d="M300 454 C250 433 191 377 141 388 C103 395 83 426 75 456" fill="none" stroke="#c5d198" stroke-width="1.35" opacity=".83"/>
<path d="M296 453.0 Q301 462.0 307 455.0 L307 476.0 Q302 482.0 296 476.0Z" fill="#8da652" />
<path d="M298 458.0 L298 476.0" fill="none" stroke="#d1d798" stroke-width="0.9" />
</g>
<g id="maize-leaf-low-right">
<path d="M305 500 C344 477 386 438 428 433 C467 427 491 447 504 473 C515 494 522 521 520 541 C510 511 492 483 469 478 C442 472 411 489 380 500 C352 510 326 515 305 511Z" fill="url(#leaf-light)" />
<path d="M306 508 C351 510 398 487 418 477 C392 496 343 520 306 508Z" fill="#b2c777" />
<path d="M306 506 C353 490 412 436 453 450 C488 461 510 503 520 538" fill="none" stroke="#c5d198" stroke-width="1.35" opacity=".83"/>
<path d="M296 503.0 Q301 512.0 307 505.0 L307 526.0 Q302 532.0 296 526.0Z" fill="#8da652" />
<path d="M298 508.0 L298 526.0" fill="none" stroke="#d1d798" stroke-width="0.9" />
</g>
<g id="maize-leaf-low-left">
<path d="M296 553 C267 528 231 495 197 491 C165 488 141 504 130 524 C116 548 115 574 121 600 C124 568 136 544 156 539 C181 533 201 544 224 553 C249 562 274 565 299 562Z" fill="url(#leaf-green)" />
<path d="M298 558 C261 547 207 492 173 510 C141 525 123 556 121 597" fill="none" stroke="#c5d198" stroke-width="1.35" opacity=".83"/>
<path d="M296 556.0 Q301 565.0 307 558.0 L307 579.0 Q302 585.0 296 579.0Z" fill="#8da652" />
<path d="M298 561.0 L298 579.0" fill="none" stroke="#d1d798" stroke-width="0.9" />
</g>
<g id="maize-leaf-basal-right">
<path d="M305 592 C330 569 362 548 390 553 C415 557 431 580 442 610 C448 627 451 642 451 655 C440 628 422 600 401 594 C371 585 336 604 306 602Z" fill="#668944" />
<path d="M306 598 C340 578 373 554 398 570 C421 585 441 624 451 652" fill="none" stroke="#c5d198" stroke-width="1.35" opacity=".83"/>
<path d="M296 595.0 Q301 604.0 307 597.0 L307 618.0 Q302 624.0 296 618.0Z" fill="#8da652" />
<path d="M298 600.0 L298 618.0" fill="none" stroke="#d1d798" stroke-width="0.9" />
</g>
<g id="maize-leaf-basal-left">
<path d="M296 609 C274 587 251 577 234 587 C218 597 214 621 220 645 C224 624 235 612 249 615 C266 618 281 622 296 619Z" fill="#708b45" />
<path d="M296 615 C270 604 246 583 230 609 C222 621 220 633 220 643" fill="none" stroke="#c5d198" stroke-width="1.35" opacity=".83"/>
<path d="M296 612.0 Q301 621.0 307 614.0 L307 635.0 Q302 641.0 296 635.0Z" fill="#8da652" />
<path d="M298 617.0 L298 635.0" fill="none" stroke="#d1d798" stroke-width="0.9" />
</g>
</g>
<g id="whole-maize-ear">
<path d="M304 465 Q322 454 332 428 L345 436 Q336 466 307 479Z" fill="#668b3f" />
<g id="maize-ear-husks" transform="rotate(17 341 430)">
<path d="M341 467 C323 455 316 430 317 401 L319 357 Q322 338 337 335 Q354 333 363 351 C369 377 370 412 361 441 Q354 458 341 467Z" fill="url(#husk-light)" />
<path d="M341 466 C329 431 332 388 320 349 C316 332 309 319 313 307 C321 325 337 338 342 364 C349 400 351 433 341 466Z" fill="#7e9d46" />
<path d="M341 465 C361 429 347 379 361 345 C365 337 369 332 373 326 C369 347 375 374 371 401 C367 431 356 456 341 465Z" fill="#a2ba62" />
<path d="M341 458 Q319 406 325 347" fill="none" stroke="#d0d795" stroke-width="0.85" opacity=".7"/>
<path d="M341 458 Q325 406 331 347" fill="none" stroke="#d0d795" stroke-width="0.85" opacity=".7"/>
<path d="M341 458 Q331 406 337 347" fill="none" stroke="#d0d795" stroke-width="0.85" opacity=".7"/>
<path d="M341 458 Q337 406 343 347" fill="none" stroke="#d0d795" stroke-width="0.85" opacity=".7"/>
<path d="M341 458 Q344 406 350 347" fill="none" stroke="#d0d795" stroke-width="0.85" opacity=".7"/>
<path d="M341 458 Q351 406 357 347" fill="none" stroke="#d0d795" stroke-width="0.85" opacity=".7"/>
<g id="maize-silks" fill="none" stroke-linecap="round">
<path d="M346.4 341.5 C341.4 306.9 336.4 301.9 360.2 352.2 Q369.2 368.8 364.2 375.8" fill="none" stroke="#cbb16b" stroke-width="0.8304719742601654" />
<path d="M337.5 342.4 C332.5 308.1 326.2 303.1 348.9 357.0 Q355.1 362.0 350.1 369.0" fill="none" stroke="#a38b4d" stroke-width="1.1166294352547714" />
<path d="M333.1 341.3 C328.1 306.5 325.1 301.5 343.9 348.5 Q348.2 358.1 343.2 365.1" fill="none" stroke="#ded08b" stroke-width="0.9295771560142488" />
<path d="M336.8 340.5 C331.8 314.8 321.8 309.8 336.6 356.5 Q339.6 369.6 334.6 376.6" fill="none" stroke="#b69a5f" stroke-width="0.8027925515473833" />
<path d="M342.1 340.8 C337.1 311.7 347.6 306.7 371.6 347.8 Q371.8 355.8 366.8 362.8" fill="none" stroke="#cbb16b" stroke-width="0.7214549157342918" />
<path d="M346.5 341.8 C341.5 314.1 335.2 309.1 344.3 357.2 Q349.1 361.1 344.1 368.1" fill="none" stroke="#a38b4d" stroke-width="1.0173530500289252" />
<path d="M327.9 342.3 C322.9 313.8 351.5 308.8 361.4 355.7 Q361.0 360.4 356.0 367.4" fill="none" stroke="#ded08b" stroke-width="0.8520808153838424" />
<path d="M327.7 342.1 C322.7 316.9 339.1 311.9 357.2 345.3 Q360.1 357.4 355.1 364.4" fill="none" stroke="#b69a5f" stroke-width="1.0956351286480024" />
<path d="M340.4 338.2 C335.4 310.6 358.0 305.6 375.5 357.1 Q383.8 367.0 378.8 374.0" fill="none" stroke="#cbb16b" stroke-width="0.9953235683523103" />
<path d="M330.7 339.1 C325.7 311.8 349.8 306.8 355.2 356.5 Q356.3 360.0 351.3 367.0" fill="none" stroke="#a38b4d" stroke-width="0.9892902090346245" />
<path d="M343.7 336.8 C338.7 311.4 344.5 306.4 352.0 353.0 Q354.5 366.3 349.5 373.3" fill="none" stroke="#ded08b" stroke-width="0.9513492510225381" />
<path d="M338.1 337.6 C333.1 304.2 353.9 299.2 365.2 342.9 Q365.4 346.1 360.4 353.1" fill="none" stroke="#b69a5f" stroke-width="0.9614921018451127" />
<path d="M327.7 336.8 C322.7 314.9 328.0 309.9 337.0 353.5 Q343.8 370.3 338.8 377.3" fill="none" stroke="#cbb16b" stroke-width="1.1051387291752686" />
<path d="M348.8 338.5 C343.8 309.1 370.4 304.1 381.1 349.1 Q380.4 362.9 375.4 369.9" fill="none" stroke="#a38b4d" stroke-width="0.7442491919871758" />
<path d="M340.1 336.4 C335.1 308.0 340.2 303.0 364.1 346.7 Q368.1 354.3 363.1 361.3" fill="none" stroke="#ded08b" stroke-width="0.7624746528988844" />
<path d="M340.8 338.1 C335.8 309.0 333.6 304.0 345.6 356.1 Q347.6 360.9 342.6 367.9" fill="none" stroke="#b69a5f" stroke-width="0.8653038239482339" />
<path d="M339.1 338.0 C334.1 309.7 324.3 304.7 348.5 358.0 Q353.7 367.5 348.7 374.5" fill="none" stroke="#cbb16b" stroke-width="0.7867605627396936" />
<path d="M341.4 341.0 C336.4 314.0 333.6 309.0 340.6 347.0 Q343.7 361.9 338.7 368.9" fill="none" stroke="#a38b4d" stroke-width="1.0091650326123127" />
<path d="M337.8 339.1 C332.8 311.7 343.7 306.7 353.8 356.8 Q364.0 365.6 359.0 372.6" fill="none" stroke="#ded08b" stroke-width="0.9013204576769479" />
<path d="M347.3 336.1 C342.3 306.7 363.3 301.7 372.1 347.6 Q379.8 355.4 374.8 362.4" fill="none" stroke="#b69a5f" stroke-width="0.9588303856513145" />
<path d="M337.8 342.4 C332.8 308.3 345.0 303.3 362.7 351.6 Q365.9 365.4 360.9 372.4" fill="none" stroke="#cbb16b" stroke-width="0.7045297464905707" />
<path d="M348.7 342.1 C343.7 315.4 331.5 310.4 339.1 359.8 Q344.5 374.0 339.5 381.0" fill="none" stroke="#a38b4d" stroke-width="0.8278971178375005" />
<path d="M341.1 336.2 C336.1 308.3 358.6 303.3 367.1 349.4 Q373.1 353.1 368.1 360.1" fill="none" stroke="#ded08b" stroke-width="0.7834518301947231" />
<path d="M334.8 339.8 C329.8 306.2 347.7 301.2 369.1 347.8 Q382.0 356.4 377.0 363.4" fill="none" stroke="#b69a5f" stroke-width="0.9237679126646043" />
<path d="M334.3 336.6 C329.3 313.5 357.8 308.5 378.0 343.9 Q383.8 351.2 378.8 358.2" fill="none" stroke="#cbb16b" stroke-width="0.8358431766226739" />
<path d="M335.1 340.4 C330.1 315.2 336.6 310.2 361.3 352.2 Q371.5 369.5 366.5 376.5" fill="none" stroke="#a38b4d" stroke-width="1.1855257121178355" />
<path d="M334.0 341.9 C329.0 304.3 346.8 299.3 368.2 358.1 Q379.7 366.1 374.7 373.1" fill="none" stroke="#ded08b" stroke-width="1.063046428363227" />
<path d="M345.0 339.1 C340.0 310.1 355.0 305.1 378.4 351.0 Q380.8 360.4 375.8 367.4" fill="none" stroke="#b69a5f" stroke-width="0.9935586032263104" />
<path d="M334.7 338.3 C329.7 309.1 344.2 304.1 359.0 342.6 Q362.5 347.3 357.5 354.3" fill="none" stroke="#cbb16b" stroke-width="0.9409973393989695" />
<path d="M333.5 338.6 C328.5 319.8 315.0 314.8 324.2 341.2 Q331.4 344.8 326.4 351.8" fill="none" stroke="#a38b4d" stroke-width="0.9856794942791473" />
<path d="M347.0 336.4 C342.0 317.4 349.3 312.4 359.1 343.5 Q358.9 356.9 353.9 363.9" fill="none" stroke="#ded08b" stroke-width="1.0815829663340337" />
<path d="M335.8 338.4 C330.8 308.0 362.1 303.0 383.0 356.4 Q388.4 371.1 383.4 378.1" fill="none" stroke="#b69a5f" stroke-width="0.8633732084870118" />
<path d="M346.8 341.2 C341.8 317.4 356.1 312.4 374.6 357.5 Q378.5 366.1 373.5 373.1" fill="none" stroke="#cbb16b" stroke-width="1.1724779803023542" />
<path d="M336.0 338.2 C331.0 309.6 354.0 304.6 367.3 351.8 Q367.6 367.4 362.6 374.4" fill="none" stroke="#a38b4d" stroke-width="1.0055765214973036" />
<path d="M327.1 336.7 C322.1 310.9 320.9 305.9 341.9 356.2 Q351.3 370.2 346.3 377.2" fill="none" stroke="#ded08b" stroke-width="0.9560609086033515" />
<path d="M328.0 338.5 C323.0 304.4 343.0 299.4 352.8 341.3 Q356.4 349.2 351.4 356.2" fill="none" stroke="#b69a5f" stroke-width="0.9395302147276001" />
<path d="M330.1 339.8 C325.1 316.6 315.6 311.6 337.3 348.9 Q348.7 361.8 343.7 368.8" fill="none" stroke="#cbb16b" stroke-width="0.9797394832665602" />
<path d="M340.6 339.1 C335.6 318.4 327.2 313.4 336.7 357.6 Q341.1 368.9 336.1 375.9" fill="none" stroke="#a38b4d" stroke-width="1.008542007867434" />
<path d="M334.3 342.9 C329.3 310.2 354.1 305.2 365.9 357.9 Q378.1 366.2 373.1 373.2" fill="none" stroke="#ded08b" stroke-width="0.7652782930894326" />
</g></g></g>
<g id="whole-maize-tassel" stroke-linecap="round">
<path d="M300 205 Q300 133 299 34" fill="none" stroke="#8b9550" stroke-width="2.9" />
<g id="maize-tassel-branch-0">
<path d="M300 166 Q254 143 230 80" fill="none" stroke="#9b9c59" stroke-width="1.4" />
<ellipse cx="284.39" cy="158.27" rx="1.35" ry="3.1" fill="#b5a96b" transform="rotate(-76.8 284.39 158.27)"/>
<path d="M284.4 158.3 q2 3 1 5" fill="none" stroke="#d4c786" stroke-width="0.65" />
<ellipse cx="285.4" cy="164.3" rx=".9" ry="2.2" fill="#ddcd8b"/>
<ellipse cx="289.00" cy="158.13" rx="1.35" ry="3.1" fill="#b5a96b" transform="rotate(-34.8 289.00 158.13)"/>
<path d="M289.0 158.1 q2 3 1 5" fill="none" stroke="#d4c786" stroke-width="0.65" />
<ellipse cx="290.0" cy="164.1" rx=".9" ry="2.2" fill="#ddcd8b"/>
<ellipse cx="280.18" cy="155.08" rx="1.35" ry="3.1" fill="#c9bb78" transform="rotate(-74.3 280.18 155.08)"/>
<ellipse cx="284.78" cy="155.40" rx="1.35" ry="3.1" fill="#c9bb78" transform="rotate(-32.3 284.78 155.40)"/>
<ellipse cx="276.07" cy="151.03" rx="1.35" ry="3.1" fill="#939b55" transform="rotate(-71.8 276.07 151.03)"/>
<ellipse cx="280.68" cy="152.13" rx="1.35" ry="3.1" fill="#939b55" transform="rotate(-29.8 280.68 152.13)"/>
<ellipse cx="272.08" cy="148.96" rx="1.35" ry="3.1" fill="#b5a96b" transform="rotate(-69.4 272.08 148.96)"/>
<path d="M272.1 149.0 q2 3 1 5" fill="none" stroke="#d4c786" stroke-width="0.65" />
<ellipse cx="273.1" cy="155.0" rx=".9" ry="2.2" fill="#ddcd8b"/>
<ellipse cx="276.68" cy="148.70" rx="1.35" ry="3.1" fill="#b5a96b" transform="rotate(-27.4 276.68 148.70)"/>
<path d="M276.7 148.7 q2 3 1 5" fill="none" stroke="#d4c786" stroke-width="0.65" />
<ellipse cx="277.7" cy="154.7" rx=".9" ry="2.2" fill="#ddcd8b"/>
<ellipse cx="268.19" cy="144.00" rx="1.35" ry="3.1" fill="#c9bb78" transform="rotate(-67.0 268.19 144.00)"/>
<ellipse cx="272.80" cy="145.14" rx="1.35" ry="3.1" fill="#c9bb78" transform="rotate(-25.0 272.80 145.14)"/>
<ellipse cx="264.42" cy="142.03" rx="1.35" ry="3.1" fill="#939b55" transform="rotate(-64.6 264.42 142.03)"/>
<ellipse cx="269.02" cy="141.57" rx="1.35" ry="3.1" fill="#939b55" transform="rotate(-22.6 269.02 141.57)"/>
<ellipse cx="260.75" cy="137.23" rx="1.35" ry="3.1" fill="#b5a96b" transform="rotate(-62.4 260.75 137.23)"/>
<path d="M260.8 137.2 q2 3 1 5" fill="none" stroke="#d4c786" stroke-width="0.65" />
<ellipse cx="261.8" cy="143.2" rx=".9" ry="2.2" fill="#ddcd8b"/>
<ellipse cx="265.36" cy="136.95" rx="1.35" ry="3.1" fill="#b5a96b" transform="rotate(-20.4 265.36 136.95)"/>
<path d="M265.4 137.0 q2 3 1 5" fill="none" stroke="#d4c786" stroke-width="0.65" />
<ellipse cx="266.4" cy="143.0" rx=".9" ry="2.2" fill="#ddcd8b"/>
<ellipse cx="257.20" cy="132.43" rx="1.35" ry="3.1" fill="#c9bb78" transform="rotate(-60.1 257.20 132.43)"/>
<ellipse cx="261.80" cy="132.91" rx="1.35" ry="3.1" fill="#c9bb78" transform="rotate(-18.1 261.80 132.91)"/>
<ellipse cx="253.75" cy="129.52" rx="1.35" ry="3.1" fill="#939b55" transform="rotate(-58.0 253.75 129.52)"/>
<ellipse cx="258.36" cy="127.90" rx="1.35" ry="3.1" fill="#939b55" transform="rotate(-16.0 258.36 127.90)"/>
<ellipse cx="250.42" cy="124.24" rx="1.35" ry="3.1" fill="#b5a96b" transform="rotate(-55.9 250.42 124.24)"/>
<path d="M250.4 124.2 q2 3 1 5" fill="none" stroke="#d4c786" stroke-width="0.65" />
<ellipse cx="251.4" cy="130.2" rx=".9" ry="2.2" fill="#ddcd8b"/>
<ellipse cx="255.02" cy="124.05" rx="1.35" ry="3.1" fill="#b5a96b" transform="rotate(-13.9 255.02 124.05)"/>
<path d="M255.0 124.0 q2 3 1 5" fill="none" stroke="#d4c786" stroke-width="0.65" />
<ellipse cx="256.0" cy="130.0" rx=".9" ry="2.2" fill="#ddcd8b"/>
<ellipse cx="247.19" cy="118.38" rx="1.35" ry="3.1" fill="#c9bb78" transform="rotate(-53.9 247.19 118.38)"/>
<ellipse cx="251.80" cy="118.69" rx="1.35" ry="3.1" fill="#c9bb78" transform="rotate(-11.9 251.80 118.69)"/>
<ellipse cx="244.08" cy="113.72" rx="1.35" ry="3.1" fill="#939b55" transform="rotate(-52.0 244.08 113.72)"/>
<ellipse cx="248.68" cy="113.38" rx="1.35" ry="3.1" fill="#939b55" transform="rotate(-10.0 248.68 113.38)"/>
<ellipse cx="241.07" cy="108.19" rx="1.35" ry="3.1" fill="#b5a96b" transform="rotate(-50.1 241.07 108.19)"/>
<path d="M241.1 108.2 q2 3 1 5" fill="none" stroke="#d4c786" stroke-width="0.65" />
<ellipse cx="242.1" cy="114.2" rx=".9" ry="2.2" fill="#ddcd8b"/>
<ellipse cx="245.68" cy="109.66" rx="1.35" ry="3.1" fill="#b5a96b" transform="rotate(-8.1 245.68 109.66)"/>
<path d="M245.7 109.7 q2 3 1 5" fill="none" stroke="#d4c786" stroke-width="0.65" />
<ellipse cx="246.7" cy="115.7" rx=".9" ry="2.2" fill="#ddcd8b"/>
<ellipse cx="238.18" cy="103.22" rx="1.35" ry="3.1" fill="#c9bb78" transform="rotate(-48.3 238.18 103.22)"/>
<ellipse cx="242.78" cy="103.94" rx="1.35" ry="3.1" fill="#c9bb78" transform="rotate(-6.3 242.78 103.94)"/>
<ellipse cx="235.39" cy="97.98" rx="1.35" ry="3.1" fill="#939b55" transform="rotate(-46.6 235.39 97.98)"/>
<ellipse cx="240.00" cy="98.03" rx="1.35" ry="3.1" fill="#939b55" transform="rotate(-4.6 240.00 98.03)"/>
<ellipse cx="232.72" cy="92.11" rx="1.35" ry="3.1" fill="#b5a96b" transform="rotate(-44.9 232.72 92.11)"/>
<path d="M232.7 92.1 q2 3 1 5" fill="none" stroke="#d4c786" stroke-width="0.65" />
<ellipse cx="233.7" cy="98.1" rx=".9" ry="2.2" fill="#ddcd8b"/>
<ellipse cx="237.32" cy="91.27" rx="1.35" ry="3.1" fill="#b5a96b" transform="rotate(-2.9 237.32 91.27)"/>
<path d="M237.3 91.3 q2 3 1 5" fill="none" stroke="#d4c786" stroke-width="0.65" />
<ellipse cx="238.3" cy="97.3" rx=".9" ry="2.2" fill="#ddcd8b"/>
<ellipse cx="230.16" cy="85.34" rx="1.35" ry="3.1" fill="#c9bb78" transform="rotate(-43.4 230.16 85.34)"/>
<ellipse cx="234.76" cy="85.45" rx="1.35" ry="3.1" fill="#c9bb78" transform="rotate(-1.4 234.76 85.45)"/>
</g>
<g id="maize-tassel-branch-1">
<path d="M300 158 Q335 135 360 73" fill="none" stroke="#9b9c59" stroke-width="1.4" />
<ellipse cx="307.97" cy="150.85" rx="1.35" ry="3.1" fill="#c9bb78" transform="rotate(28.3 307.97 150.85)"/>
<ellipse cx="312.57" cy="150.62" rx="1.35" ry="3.1" fill="#c9bb78" transform="rotate(70.3 312.57 150.62)"/>
<ellipse cx="311.30" cy="148.16" rx="1.35" ry="3.1" fill="#939b55" transform="rotate(26.0 311.30 148.16)"/>
<path d="M311.3 148.2 q2 3 1 5" fill="none" stroke="#d4c786" stroke-width="0.65" />
<ellipse cx="312.3" cy="154.2" rx=".9" ry="2.2" fill="#ddcd8b"/>
<ellipse cx="315.90" cy="147.62" rx="1.35" ry="3.1" fill="#939b55" transform="rotate(68.0 315.90 147.62)"/>
<path d="M315.9 147.6 q2 3 1 5" fill="none" stroke="#d4c786" stroke-width="0.65" />
<ellipse cx="316.9" cy="153.6" rx=".9" ry="2.2" fill="#ddcd8b"/>
<ellipse cx="314.57" cy="143.51" rx="1.35" ry="3.1" fill="#b5a96b" transform="rotate(23.8 314.57 143.51)"/>
<ellipse cx="319.18" cy="144.23" rx="1.35" ry="3.1" fill="#b5a96b" transform="rotate(65.8 319.18 144.23)"/>
<ellipse cx="317.80" cy="141.02" rx="1.35" ry="3.1" fill="#c9bb78" transform="rotate(21.7 317.80 141.02)"/>
<ellipse cx="322.40" cy="140.25" rx="1.35" ry="3.1" fill="#c9bb78" transform="rotate(63.7 322.40 140.25)"/>
<ellipse cx="320.97" cy="136.95" rx="1.35" ry="3.1" fill="#939b55" transform="rotate(19.7 320.97 136.95)"/>
<path d="M321.0 136.9 q2 3 1 5" fill="none" stroke="#d4c786" stroke-width="0.65" />
<ellipse cx="322.0" cy="142.9" rx=".9" ry="2.2" fill="#ddcd8b"/>
<ellipse cx="325.57" cy="137.71" rx="1.35" ry="3.1" fill="#939b55" transform="rotate(61.7 325.57 137.71)"/>
<path d="M325.6 137.7 q2 3 1 5" fill="none" stroke="#d4c786" stroke-width="0.65" />
<ellipse cx="326.6" cy="143.7" rx=".9" ry="2.2" fill="#ddcd8b"/>
<ellipse cx="324.10" cy="132.77" rx="1.35" ry="3.1" fill="#b5a96b" transform="rotate(17.8 324.10 132.77)"/>
<ellipse cx="328.70" cy="132.42" rx="1.35" ry="3.1" fill="#b5a96b" transform="rotate(59.8 328.70 132.42)"/>
<ellipse cx="327.18" cy="130.19" rx="1.35" ry="3.1" fill="#c9bb78" transform="rotate(15.9 327.18 130.19)"/>
<ellipse cx="331.78" cy="129.08" rx="1.35" ry="3.1" fill="#c9bb78" transform="rotate(57.9 331.78 129.08)"/>
<ellipse cx="330.20" cy="125.46" rx="1.35" ry="3.1" fill="#939b55" transform="rotate(14.2 330.20 125.46)"/>
<path d="M330.2 125.5 q2 3 1 5" fill="none" stroke="#d4c786" stroke-width="0.65" />
<ellipse cx="331.2" cy="131.5" rx=".9" ry="2.2" fill="#ddcd8b"/>
<ellipse cx="334.80" cy="126.19" rx="1.35" ry="3.1" fill="#939b55" transform="rotate(56.2 334.80 126.19)"/>
<path d="M334.8 126.2 q2 3 1 5" fill="none" stroke="#d4c786" stroke-width="0.65" />
<ellipse cx="335.8" cy="132.2" rx=".9" ry="2.2" fill="#ddcd8b"/>
<ellipse cx="333.18" cy="120.29" rx="1.35" ry="3.1" fill="#b5a96b" transform="rotate(12.6 333.18 120.29)"/>
<ellipse cx="337.78" cy="120.43" rx="1.35" ry="3.1" fill="#b5a96b" transform="rotate(54.6 337.78 120.43)"/>
<ellipse cx="336.10" cy="116.03" rx="1.35" ry="3.1" fill="#c9bb78" transform="rotate(11.0 336.10 116.03)"/>
<ellipse cx="340.70" cy="115.92" rx="1.35" ry="3.1" fill="#c9bb78" transform="rotate(53.0 340.70 115.92)"/>
<ellipse cx="338.97" cy="111.61" rx="1.35" ry="3.1" fill="#939b55" transform="rotate(9.5 338.97 111.61)"/>
<path d="M339.0 111.6 q2 3 1 5" fill="none" stroke="#d4c786" stroke-width="0.65" />
<ellipse cx="340.0" cy="117.6" rx=".9" ry="2.2" fill="#ddcd8b"/>
<ellipse cx="343.57" cy="110.67" rx="1.35" ry="3.1" fill="#939b55" transform="rotate(51.5 343.57 110.67)"/>
<path d="M343.6 110.7 q2 3 1 5" fill="none" stroke="#d4c786" stroke-width="0.65" />
<ellipse cx="344.6" cy="116.7" rx=".9" ry="2.2" fill="#ddcd8b"/>
<ellipse cx="341.80" cy="107.30" rx="1.35" ry="3.1" fill="#b5a96b" transform="rotate(8.1 341.80 107.30)"/>
<ellipse cx="346.40" cy="107.69" rx="1.35" ry="3.1" fill="#b5a96b" transform="rotate(50.1 346.40 107.69)"/>
<ellipse cx="344.57" cy="100.99" rx="1.35" ry="3.1" fill="#c9bb78" transform="rotate(6.8 344.57 100.99)"/>
<ellipse cx="349.18" cy="101.36" rx="1.35" ry="3.1" fill="#c9bb78" transform="rotate(48.8 349.18 101.36)"/>
<ellipse cx="347.30" cy="95.99" rx="1.35" ry="3.1" fill="#939b55" transform="rotate(5.5 347.30 95.99)"/>
<path d="M347.3 96.0 q2 3 1 5" fill="none" stroke="#d4c786" stroke-width="0.65" />
<ellipse cx="348.3" cy="102.0" rx=".9" ry="2.2" fill="#ddcd8b"/>
<ellipse cx="351.90" cy="96.65" rx="1.35" ry="3.1" fill="#939b55" transform="rotate(47.5 351.90 96.65)"/>
<path d="M351.9 96.6 q2 3 1 5" fill="none" stroke="#d4c786" stroke-width="0.65" />
<ellipse cx="352.9" cy="102.6" rx=".9" ry="2.2" fill="#ddcd8b"/>
<ellipse cx="349.97" cy="90.55" rx="1.35" ry="3.1" fill="#b5a96b" transform="rotate(4.3 349.97 90.55)"/>
<ellipse cx="354.57" cy="91.45" rx="1.35" ry="3.1" fill="#b5a96b" transform="rotate(46.3 354.57 91.45)"/>
<ellipse cx="352.60" cy="85.91" rx="1.35" ry="3.1" fill="#c9bb78" transform="rotate(3.1 352.60 85.91)"/>
<ellipse cx="357.20" cy="84.54" rx="1.35" ry="3.1" fill="#c9bb78" transform="rotate(45.1 357.20 84.54)"/>
<ellipse cx="355.18" cy="78.34" rx="1.35" ry="3.1" fill="#939b55" transform="rotate(2.0 355.18 78.34)"/>
<path d="M355.2 78.3 q2 3 1 5" fill="none" stroke="#d4c786" stroke-width="0.65" />
<ellipse cx="356.2" cy="84.3" rx=".9" ry="2.2" fill="#ddcd8b"/>
<ellipse cx="359.78" cy="79.32" rx="1.35" ry="3.1" fill="#939b55" transform="rotate(44.0 359.78 79.32)"/>
<path d="M359.8 79.3 q2 3 1 5" fill="none" stroke="#d4c786" stroke-width="0.65" />
<ellipse cx="360.8" cy="85.3" rx=".9" ry="2.2" fill="#ddcd8b"/>
</g>
<g id="maize-tassel-branch-2">
<path d="M300 149 Q274 118 260 48" fill="none" stroke="#9b9c59" stroke-width="1.4" />
<ellipse cx="290.17" cy="137.95" rx="1.35" ry="3.1" fill="#939b55" transform="rotate(-54.3 290.17 137.95)"/>
<ellipse cx="294.77" cy="138.65" rx="1.35" ry="3.1" fill="#939b55" transform="rotate(-12.3 294.77 138.65)"/>
<ellipse cx="287.78" cy="134.43" rx="1.35" ry="3.1" fill="#b5a96b" transform="rotate(-52.3 287.78 134.43)"/>
<ellipse cx="292.38" cy="135.69" rx="1.35" ry="3.1" fill="#b5a96b" transform="rotate(-10.3 292.38 135.69)"/>
<ellipse cx="285.45" cy="130.87" rx="1.35" ry="3.1" fill="#c9bb78" transform="rotate(-50.4 285.45 130.87)"/>
<path d="M285.4 130.9 q2 3 1 5" fill="none" stroke="#d4c786" stroke-width="0.65" />
<ellipse cx="286.4" cy="136.9" rx=".9" ry="2.2" fill="#ddcd8b"/>
<ellipse cx="290.05" cy="131.73" rx="1.35" ry="3.1" fill="#c9bb78" transform="rotate(-8.4 290.05 131.73)"/>
<path d="M290.1 131.7 q2 3 1 5" fill="none" stroke="#d4c786" stroke-width="0.65" />
<ellipse cx="291.1" cy="137.7" rx=".9" ry="2.2" fill="#ddcd8b"/>
<ellipse cx="283.18" cy="127.07" rx="1.35" ry="3.1" fill="#939b55" transform="rotate(-48.7 283.18 127.07)"/>
<ellipse cx="287.78" cy="127.38" rx="1.35" ry="3.1" fill="#939b55" transform="rotate(-6.7 287.78 127.38)"/>
<ellipse cx="280.97" cy="122.85" rx="1.35" ry="3.1" fill="#b5a96b" transform="rotate(-47.0 280.97 122.85)"/>
<ellipse cx="285.57" cy="123.09" rx="1.35" ry="3.1" fill="#b5a96b" transform="rotate(-5.0 285.57 123.09)"/>
<ellipse cx="278.82" cy="118.43" rx="1.35" ry="3.1" fill="#c9bb78" transform="rotate(-45.5 278.82 118.43)"/>
<path d="M278.8 118.4 q2 3 1 5" fill="none" stroke="#d4c786" stroke-width="0.65" />
<ellipse cx="279.8" cy="124.4" rx=".9" ry="2.2" fill="#ddcd8b"/>
<ellipse cx="283.42" cy="118.57" rx="1.35" ry="3.1" fill="#c9bb78" transform="rotate(-3.5 283.42 118.57)"/>
<path d="M283.4 118.6 q2 3 1 5" fill="none" stroke="#d4c786" stroke-width="0.65" />
<ellipse cx="284.4" cy="124.6" rx=".9" ry="2.2" fill="#ddcd8b"/>
<ellipse cx="276.73" cy="112.98" rx="1.35" ry="3.1" fill="#939b55" transform="rotate(-44.0 276.73 112.98)"/>
<ellipse cx="281.33" cy="112.55" rx="1.35" ry="3.1" fill="#939b55" transform="rotate(-2.0 281.33 112.55)"/>
<ellipse cx="274.70" cy="107.71" rx="1.35" ry="3.1" fill="#b5a96b" transform="rotate(-42.6 274.70 107.71)"/>
<ellipse cx="279.30" cy="108.88" rx="1.35" ry="3.1" fill="#b5a96b" transform="rotate(-0.6 279.30 108.88)"/>
<ellipse cx="272.73" cy="102.34" rx="1.35" ry="3.1" fill="#c9bb78" transform="rotate(-41.3 272.73 102.34)"/>
<path d="M272.7 102.3 q2 3 1 5" fill="none" stroke="#d4c786" stroke-width="0.65" />
<ellipse cx="273.7" cy="108.3" rx=".9" ry="2.2" fill="#ddcd8b"/>
<ellipse cx="277.33" cy="103.63" rx="1.35" ry="3.1" fill="#c9bb78" transform="rotate(0.7 277.33 103.63)"/>
<path d="M277.3 103.6 q2 3 1 5" fill="none" stroke="#d4c786" stroke-width="0.65" />
<ellipse cx="278.3" cy="109.6" rx=".9" ry="2.2" fill="#ddcd8b"/>
<ellipse cx="270.82" cy="96.86" rx="1.35" ry="3.1" fill="#939b55" transform="rotate(-40.1 270.82 96.86)"/>
<ellipse cx="275.42" cy="96.79" rx="1.35" ry="3.1" fill="#939b55" transform="rotate(1.9 275.42 96.79)"/>
<ellipse cx="268.97" cy="92.69" rx="1.35" ry="3.1" fill="#b5a96b" transform="rotate(-38.9 268.97 92.69)"/>
<ellipse cx="273.57" cy="92.68" rx="1.35" ry="3.1" fill="#b5a96b" transform="rotate(3.1 273.57 92.68)"/>
<ellipse cx="267.18" cy="87.06" rx="1.35" ry="3.1" fill="#c9bb78" transform="rotate(-37.8 267.18 87.06)"/>
<path d="M267.2 87.1 q2 3 1 5" fill="none" stroke="#d4c786" stroke-width="0.65" />
<ellipse cx="268.2" cy="93.1" rx=".9" ry="2.2" fill="#ddcd8b"/>
<ellipse cx="271.78" cy="86.23" rx="1.35" ry="3.1" fill="#c9bb78" transform="rotate(4.2 271.78 86.23)"/>
<path d="M271.8 86.2 q2 3 1 5" fill="none" stroke="#d4c786" stroke-width="0.65" />
<ellipse cx="272.8" cy="92.2" rx=".9" ry="2.2" fill="#ddcd8b"/>
<ellipse cx="265.45" cy="80.93" rx="1.35" ry="3.1" fill="#939b55" transform="rotate(-36.8 265.45 80.93)"/>
<ellipse cx="270.05" cy="81.04" rx="1.35" ry="3.1" fill="#939b55" transform="rotate(5.2 270.05 81.04)"/>
<ellipse cx="263.78" cy="73.90" rx="1.35" ry="3.1" fill="#b5a96b" transform="rotate(-35.8 263.78 73.90)"/>
<ellipse cx="268.38" cy="73.68" rx="1.35" ry="3.1" fill="#b5a96b" transform="rotate(6.2 268.38 73.68)"/>
<ellipse cx="262.17" cy="67.24" rx="1.35" ry="3.1" fill="#c9bb78" transform="rotate(-34.8 262.17 67.24)"/>
<path d="M262.2 67.2 q2 3 1 5" fill="none" stroke="#d4c786" stroke-width="0.65" />
<ellipse cx="263.2" cy="73.2" rx=".9" ry="2.2" fill="#ddcd8b"/>
<ellipse cx="266.77" cy="67.73" rx="1.35" ry="3.1" fill="#c9bb78" transform="rotate(7.2 266.77 67.73)"/>
<path d="M266.8 67.7 q2 3 1 5" fill="none" stroke="#d4c786" stroke-width="0.65" />
<ellipse cx="267.8" cy="73.7" rx=".9" ry="2.2" fill="#ddcd8b"/>
<ellipse cx="260.62" cy="62.16" rx="1.35" ry="3.1" fill="#939b55" transform="rotate(-34.0 260.62 62.16)"/>
<ellipse cx="265.22" cy="61.06" rx="1.35" ry="3.1" fill="#939b55" transform="rotate(8.0 265.22 61.06)"/>
<ellipse cx="259.13" cy="55.57" rx="1.35" ry="3.1" fill="#b5a96b" transform="rotate(-33.1 259.13 55.57)"/>
<ellipse cx="263.73" cy="55.20" rx="1.35" ry="3.1" fill="#b5a96b" transform="rotate(8.9 263.73 55.20)"/>
</g>
<g id="maize-tassel-branch-3">
<path d="M300 136 Q320 108 332 40" fill="none" stroke="#9b9c59" stroke-width="1.4" />
<ellipse cx="303.52" cy="127.61" rx="1.35" ry="3.1" fill="#b5a96b" transform="rotate(7.9 303.52 127.61)"/>
<path d="M303.5 127.6 q2 3 1 5" fill="none" stroke="#d4c786" stroke-width="0.65" />
<ellipse cx="304.5" cy="133.6" rx=".9" ry="2.2" fill="#ddcd8b"/>
<ellipse cx="308.12" cy="126.25" rx="1.35" ry="3.1" fill="#b5a96b" transform="rotate(49.9 308.12 126.25)"/>
<path d="M308.1 126.2 q2 3 1 5" fill="none" stroke="#d4c786" stroke-width="0.65" />
<ellipse cx="309.1" cy="132.2" rx=".9" ry="2.2" fill="#ddcd8b"/>
<ellipse cx="305.38" cy="124.14" rx="1.35" ry="3.1" fill="#c9bb78" transform="rotate(6.1 305.38 124.14)"/>
<ellipse cx="309.98" cy="123.76" rx="1.35" ry="3.1" fill="#c9bb78" transform="rotate(48.1 309.98 123.76)"/>
<ellipse cx="307.20" cy="118.59" rx="1.35" ry="3.1" fill="#939b55" transform="rotate(4.3 307.20 118.59)"/>
<ellipse cx="311.80" cy="119.05" rx="1.35" ry="3.1" fill="#939b55" transform="rotate(46.3 311.80 119.05)"/>
<ellipse cx="308.98" cy="114.83" rx="1.35" ry="3.1" fill="#b5a96b" transform="rotate(2.7 308.98 114.83)"/>
<path d="M309.0 114.8 q2 3 1 5" fill="none" stroke="#d4c786" stroke-width="0.65" />
<ellipse cx="310.0" cy="120.8" rx=".9" ry="2.2" fill="#ddcd8b"/>
<ellipse cx="313.58" cy="115.26" rx="1.35" ry="3.1" fill="#b5a96b" transform="rotate(44.7 313.58 115.26)"/>
<path d="M313.6 115.3 q2 3 1 5" fill="none" stroke="#d4c786" stroke-width="0.65" />
<ellipse cx="314.6" cy="121.3" rx=".9" ry="2.2" fill="#ddcd8b"/>
<ellipse cx="310.72" cy="111.67" rx="1.35" ry="3.1" fill="#c9bb78" transform="rotate(1.3 310.72 111.67)"/>
<ellipse cx="315.32" cy="112.44" rx="1.35" ry="3.1" fill="#c9bb78" transform="rotate(43.3 315.32 112.44)"/>
<ellipse cx="312.42" cy="107.92" rx="1.35" ry="3.1" fill="#939b55" transform="rotate(-0.1 312.42 107.92)"/>
<ellipse cx="317.02" cy="106.83" rx="1.35" ry="3.1" fill="#939b55" transform="rotate(41.9 317.02 106.83)"/>
<ellipse cx="314.08" cy="102.87" rx="1.35" ry="3.1" fill="#b5a96b" transform="rotate(-1.4 314.08 102.87)"/>
<path d="M314.1 102.9 q2 3 1 5" fill="none" stroke="#d4c786" stroke-width="0.65" />
<ellipse cx="315.1" cy="108.9" rx=".9" ry="2.2" fill="#ddcd8b"/>
<ellipse cx="318.68" cy="102.70" rx="1.35" ry="3.1" fill="#b5a96b" transform="rotate(40.6 318.68 102.70)"/>
<path d="M318.7 102.7 q2 3 1 5" fill="none" stroke="#d4c786" stroke-width="0.65" />
<ellipse cx="319.7" cy="108.7" rx=".9" ry="2.2" fill="#ddcd8b"/>
<ellipse cx="315.70" cy="97.04" rx="1.35" ry="3.1" fill="#c9bb78" transform="rotate(-2.6 315.70 97.04)"/>
<ellipse cx="320.30" cy="97.56" rx="1.35" ry="3.1" fill="#c9bb78" transform="rotate(39.4 320.30 97.56)"/>
<ellipse cx="317.28" cy="93.11" rx="1.35" ry="3.1" fill="#939b55" transform="rotate(-3.7 317.28 93.11)"/>
<ellipse cx="321.88" cy="93.12" rx="1.35" ry="3.1" fill="#939b55" transform="rotate(38.3 321.88 93.12)"/>
<ellipse cx="318.82" cy="88.43" rx="1.35" ry="3.1" fill="#b5a96b" transform="rotate(-4.7 318.82 88.43)"/>
<path d="M318.8 88.4 q2 3 1 5" fill="none" stroke="#d4c786" stroke-width="0.65" />
<ellipse cx="319.8" cy="94.4" rx=".9" ry="2.2" fill="#ddcd8b"/>
<ellipse cx="323.42" cy="87.60" rx="1.35" ry="3.1" fill="#b5a96b" transform="rotate(37.3 323.42 87.60)"/>
<path d="M323.4 87.6 q2 3 1 5" fill="none" stroke="#d4c786" stroke-width="0.65" />
<ellipse cx="324.4" cy="93.6" rx=".9" ry="2.2" fill="#ddcd8b"/>
<ellipse cx="320.32" cy="83.66" rx="1.35" ry="3.1" fill="#c9bb78" transform="rotate(-5.7 320.32 83.66)"/>
<ellipse cx="324.92" cy="83.54" rx="1.35" ry="3.1" fill="#c9bb78" transform="rotate(36.3 324.92 83.54)"/>
<ellipse cx="321.78" cy="76.80" rx="1.35" ry="3.1" fill="#939b55" transform="rotate(-6.6 321.78 76.80)"/>
<ellipse cx="326.38" cy="76.47" rx="1.35" ry="3.1" fill="#939b55" transform="rotate(35.4 326.38 76.47)"/>
<ellipse cx="323.20" cy="70.95" rx="1.35" ry="3.1" fill="#b5a96b" transform="rotate(-7.4 323.20 70.95)"/>
<path d="M323.2 70.9 q2 3 1 5" fill="none" stroke="#d4c786" stroke-width="0.65" />
<ellipse cx="324.2" cy="76.9" rx=".9" ry="2.2" fill="#ddcd8b"/>
<ellipse cx="327.80" cy="71.20" rx="1.35" ry="3.1" fill="#b5a96b" transform="rotate(34.6 327.80 71.20)"/>
<path d="M327.8 71.2 q2 3 1 5" fill="none" stroke="#d4c786" stroke-width="0.65" />
<ellipse cx="328.8" cy="77.2" rx=".9" ry="2.2" fill="#ddcd8b"/>
<ellipse cx="324.58" cy="65.56" rx="1.35" ry="3.1" fill="#c9bb78" transform="rotate(-8.2 324.58 65.56)"/>
<ellipse cx="329.18" cy="65.47" rx="1.35" ry="3.1" fill="#c9bb78" transform="rotate(33.8 329.18 65.47)"/>
<ellipse cx="325.92" cy="59.71" rx="1.35" ry="3.1" fill="#939b55" transform="rotate(-9.0 325.92 59.71)"/>
<ellipse cx="330.52" cy="59.94" rx="1.35" ry="3.1" fill="#939b55" transform="rotate(33.0 330.52 59.94)"/>
<ellipse cx="327.22" cy="52.22" rx="1.35" ry="3.1" fill="#b5a96b" transform="rotate(-9.7 327.22 52.22)"/>
<path d="M327.2 52.2 q2 3 1 5" fill="none" stroke="#d4c786" stroke-width="0.65" />
<ellipse cx="328.2" cy="58.2" rx=".9" ry="2.2" fill="#ddcd8b"/>
<ellipse cx="331.82" cy="52.46" rx="1.35" ry="3.1" fill="#b5a96b" transform="rotate(32.3 331.82 52.46)"/>
<path d="M331.8 52.5 q2 3 1 5" fill="none" stroke="#d4c786" stroke-width="0.65" />
<ellipse cx="332.8" cy="58.5" rx=".9" ry="2.2" fill="#ddcd8b"/>
<ellipse cx="328.48" cy="46.58" rx="1.35" ry="3.1" fill="#c9bb78" transform="rotate(-10.4 328.48 46.58)"/>
<ellipse cx="333.08" cy="46.70" rx="1.35" ry="3.1" fill="#c9bb78" transform="rotate(31.6 333.08 46.70)"/>
</g>
<g id="maize-tassel-branch-4">
<path d="M300 128 Q282 103 281 63" fill="none" stroke="#9b9c59" stroke-width="1.4" />
<ellipse cx="292.68" cy="120.65" rx="1.35" ry="3.1" fill="#c9bb78" transform="rotate(-50.6 292.68 120.65)"/>
<ellipse cx="297.28" cy="120.67" rx="1.35" ry="3.1" fill="#c9bb78" transform="rotate(-8.6 297.28 120.67)"/>
<ellipse cx="291.18" cy="117.17" rx="1.35" ry="3.1" fill="#939b55" transform="rotate(-48.5 291.18 117.17)"/>
<path d="M291.2 117.2 q2 3 1 5" fill="none" stroke="#d4c786" stroke-width="0.65" />
<ellipse cx="292.2" cy="123.2" rx=".9" ry="2.2" fill="#ddcd8b"/>
<ellipse cx="295.78" cy="117.68" rx="1.35" ry="3.1" fill="#939b55" transform="rotate(-6.5 295.78 117.68)"/>
<path d="M295.8 117.7 q2 3 1 5" fill="none" stroke="#d4c786" stroke-width="0.65" />
<ellipse cx="296.8" cy="123.7" rx=".9" ry="2.2" fill="#ddcd8b"/>
<ellipse cx="289.76" cy="114.15" rx="1.35" ry="3.1" fill="#b5a96b" transform="rotate(-46.6 289.76 114.15)"/>
<ellipse cx="294.36" cy="114.58" rx="1.35" ry="3.1" fill="#b5a96b" transform="rotate(-4.6 294.36 114.58)"/>
<ellipse cx="288.43" cy="112.33" rx="1.35" ry="3.1" fill="#c9bb78" transform="rotate(-44.6 288.43 112.33)"/>
<ellipse cx="293.03" cy="112.11" rx="1.35" ry="3.1" fill="#c9bb78" transform="rotate(-2.6 293.03 112.11)"/>
<ellipse cx="287.18" cy="107.70" rx="1.35" ry="3.1" fill="#939b55" transform="rotate(-42.7 287.18 107.70)"/>
<path d="M287.2 107.7 q2 3 1 5" fill="none" stroke="#d4c786" stroke-width="0.65" />
<ellipse cx="288.2" cy="113.7" rx=".9" ry="2.2" fill="#ddcd8b"/>
<ellipse cx="291.78" cy="109.11" rx="1.35" ry="3.1" fill="#939b55" transform="rotate(-0.7 291.78 109.11)"/>
<path d="M291.8 109.1 q2 3 1 5" fill="none" stroke="#d4c786" stroke-width="0.65" />
<ellipse cx="292.8" cy="115.1" rx=".9" ry="2.2" fill="#ddcd8b"/>
<ellipse cx="286.02" cy="105.75" rx="1.35" ry="3.1" fill="#b5a96b" transform="rotate(-40.9 286.02 105.75)"/>
<ellipse cx="290.62" cy="106.38" rx="1.35" ry="3.1" fill="#b5a96b" transform="rotate(1.1 290.62 106.38)"/>
<ellipse cx="284.94" cy="101.57" rx="1.35" ry="3.1" fill="#c9bb78" transform="rotate(-39.1 284.94 101.57)"/>
<ellipse cx="289.54" cy="101.46" rx="1.35" ry="3.1" fill="#c9bb78" transform="rotate(2.9 289.54 101.46)"/>
<ellipse cx="283.95" cy="98.85" rx="1.35" ry="3.1" fill="#939b55" transform="rotate(-37.3 283.95 98.85)"/>
<path d="M283.9 98.9 q2 3 1 5" fill="none" stroke="#d4c786" stroke-width="0.65" />
<ellipse cx="284.9" cy="104.9" rx=".9" ry="2.2" fill="#ddcd8b"/>
<ellipse cx="288.55" cy="100.21" rx="1.35" ry="3.1" fill="#939b55" transform="rotate(4.7 288.55 100.21)"/>
<path d="M288.6 100.2 q2 3 1 5" fill="none" stroke="#d4c786" stroke-width="0.65" />
<ellipse cx="289.6" cy="106.2" rx=".9" ry="2.2" fill="#ddcd8b"/>
<ellipse cx="283.04" cy="95.65" rx="1.35" ry="3.1" fill="#b5a96b" transform="rotate(-35.6 283.04 95.65)"/>
<ellipse cx="287.64" cy="96.07" rx="1.35" ry="3.1" fill="#b5a96b" transform="rotate(6.4 287.64 96.07)"/>
<ellipse cx="282.22" cy="92.03" rx="1.35" ry="3.1" fill="#c9bb78" transform="rotate(-33.9 282.22 92.03)"/>
<ellipse cx="286.82" cy="92.62" rx="1.35" ry="3.1" fill="#c9bb78" transform="rotate(8.1 286.82 92.62)"/>
<ellipse cx="281.48" cy="89.69" rx="1.35" ry="3.1" fill="#939b55" transform="rotate(-32.3 281.48 89.69)"/>
<path d="M281.5 89.7 q2 3 1 5" fill="none" stroke="#d4c786" stroke-width="0.65" />
<ellipse cx="282.5" cy="95.7" rx=".9" ry="2.2" fill="#ddcd8b"/>
<ellipse cx="286.08" cy="88.80" rx="1.35" ry="3.1" fill="#939b55" transform="rotate(9.7 286.08 88.80)"/>
<path d="M286.1 88.8 q2 3 1 5" fill="none" stroke="#d4c786" stroke-width="0.65" />
<ellipse cx="287.1" cy="94.8" rx=".9" ry="2.2" fill="#ddcd8b"/>
<ellipse cx="280.83" cy="84.81" rx="1.35" ry="3.1" fill="#b5a96b" transform="rotate(-30.7 280.83 84.81)"/>
<ellipse cx="285.43" cy="85.84" rx="1.35" ry="3.1" fill="#b5a96b" transform="rotate(11.3 285.43 85.84)"/>
<ellipse cx="280.26" cy="81.21" rx="1.35" ry="3.1" fill="#c9bb78" transform="rotate(-29.2 280.26 81.21)"/>
<ellipse cx="284.86" cy="81.12" rx="1.35" ry="3.1" fill="#c9bb78" transform="rotate(12.8 284.86 81.12)"/>
<ellipse cx="279.78" cy="77.71" rx="1.35" ry="3.1" fill="#939b55" transform="rotate(-27.8 279.78 77.71)"/>
<path d="M279.8 77.7 q2 3 1 5" fill="none" stroke="#d4c786" stroke-width="0.65" />
<ellipse cx="280.8" cy="83.7" rx=".9" ry="2.2" fill="#ddcd8b"/>
<ellipse cx="284.38" cy="78.09" rx="1.35" ry="3.1" fill="#939b55" transform="rotate(14.2 284.38 78.09)"/>
<path d="M284.4 78.1 q2 3 1 5" fill="none" stroke="#d4c786" stroke-width="0.65" />
<ellipse cx="285.4" cy="84.1" rx=".9" ry="2.2" fill="#ddcd8b"/>
<ellipse cx="279.38" cy="73.99" rx="1.35" ry="3.1" fill="#b5a96b" transform="rotate(-26.4 279.38 73.99)"/>
<ellipse cx="283.98" cy="75.59" rx="1.35" ry="3.1" fill="#b5a96b" transform="rotate(15.6 283.98 75.59)"/>
<ellipse cx="279.07" cy="71.22" rx="1.35" ry="3.1" fill="#c9bb78" transform="rotate(-25.0 279.07 71.22)"/>
<ellipse cx="283.67" cy="71.38" rx="1.35" ry="3.1" fill="#c9bb78" transform="rotate(17.0 283.67 71.38)"/>
<ellipse cx="278.84" cy="67.33" rx="1.35" ry="3.1" fill="#939b55" transform="rotate(-23.7 278.84 67.33)"/>
<path d="M278.8 67.3 q2 3 1 5" fill="none" stroke="#d4c786" stroke-width="0.65" />
<ellipse cx="279.8" cy="73.3" rx=".9" ry="2.2" fill="#ddcd8b"/>
<ellipse cx="283.44" cy="66.60" rx="1.35" ry="3.1" fill="#939b55" transform="rotate(18.3 283.44 66.60)"/>
<path d="M283.4 66.6 q2 3 1 5" fill="none" stroke="#d4c786" stroke-width="0.65" />
<ellipse cx="284.4" cy="72.6" rx=".9" ry="2.2" fill="#ddcd8b"/>
</g>
<g id="maize-tassel-branch-5">
<path d="M300 170 Q346 162 382 118" fill="none" stroke="#9b9c59" stroke-width="1.4" />
<ellipse cx="311.27" cy="165.84" rx="1.35" ry="3.1" fill="#939b55" transform="rotate(52.2 311.27 165.84)"/>
<ellipse cx="315.87" cy="165.82" rx="1.35" ry="3.1" fill="#939b55" transform="rotate(94.2 315.87 165.82)"/>
<ellipse cx="315.70" cy="164.64" rx="1.35" ry="3.1" fill="#b5a96b" transform="rotate(49.9 315.70 164.64)"/>
<ellipse cx="320.30" cy="165.09" rx="1.35" ry="3.1" fill="#b5a96b" transform="rotate(91.9 320.30 165.09)"/>
<ellipse cx="320.07" cy="163.80" rx="1.35" ry="3.1" fill="#c9bb78" transform="rotate(47.7 320.07 163.80)"/>
<path d="M320.1 163.8 q2 3 1 5" fill="none" stroke="#d4c786" stroke-width="0.65" />
<ellipse cx="321.1" cy="169.8" rx=".9" ry="2.2" fill="#ddcd8b"/>
<ellipse cx="324.68" cy="164.25" rx="1.35" ry="3.1" fill="#c9bb78" transform="rotate(89.7 324.68 164.25)"/>
<path d="M324.7 164.3 q2 3 1 5" fill="none" stroke="#d4c786" stroke-width="0.65" />
<ellipse cx="325.7" cy="170.3" rx=".9" ry="2.2" fill="#ddcd8b"/>
<ellipse cx="324.40" cy="162.82" rx="1.35" ry="3.1" fill="#939b55" transform="rotate(45.4 324.40 162.82)"/>
<ellipse cx="329.00" cy="162.64" rx="1.35" ry="3.1" fill="#939b55" transform="rotate(87.4 329.00 162.64)"/>
<ellipse cx="328.68" cy="160.19" rx="1.35" ry="3.1" fill="#b5a96b" transform="rotate(43.1 328.68 160.19)"/>
<ellipse cx="333.28" cy="160.42" rx="1.35" ry="3.1" fill="#b5a96b" transform="rotate(85.1 333.28 160.42)"/>
<ellipse cx="332.90" cy="158.76" rx="1.35" ry="3.1" fill="#c9bb78" transform="rotate(40.9 332.90 158.76)"/>
<path d="M332.9 158.8 q2 3 1 5" fill="none" stroke="#d4c786" stroke-width="0.65" />
<ellipse cx="333.9" cy="164.8" rx=".9" ry="2.2" fill="#ddcd8b"/>
<ellipse cx="337.50" cy="158.72" rx="1.35" ry="3.1" fill="#c9bb78" transform="rotate(82.9 337.50 158.72)"/>
<path d="M337.5 158.7 q2 3 1 5" fill="none" stroke="#d4c786" stroke-width="0.65" />
<ellipse cx="338.5" cy="164.7" rx=".9" ry="2.2" fill="#ddcd8b"/>
<ellipse cx="337.08" cy="155.76" rx="1.35" ry="3.1" fill="#939b55" transform="rotate(38.8 337.08 155.76)"/>
<ellipse cx="341.68" cy="155.90" rx="1.35" ry="3.1" fill="#939b55" transform="rotate(80.8 341.68 155.90)"/>
<ellipse cx="341.20" cy="153.68" rx="1.35" ry="3.1" fill="#b5a96b" transform="rotate(36.6 341.20 153.68)"/>
<ellipse cx="345.80" cy="153.73" rx="1.35" ry="3.1" fill="#b5a96b" transform="rotate(78.6 345.80 153.73)"/>
<ellipse cx="345.27" cy="150.38" rx="1.35" ry="3.1" fill="#c9bb78" transform="rotate(34.5 345.27 150.38)"/>
<path d="M345.3 150.4 q2 3 1 5" fill="none" stroke="#d4c786" stroke-width="0.65" />
<ellipse cx="346.3" cy="156.4" rx=".9" ry="2.2" fill="#ddcd8b"/>
<ellipse cx="349.88" cy="150.45" rx="1.35" ry="3.1" fill="#c9bb78" transform="rotate(76.5 349.88 150.45)"/>
<path d="M349.9 150.4 q2 3 1 5" fill="none" stroke="#d4c786" stroke-width="0.65" />
<ellipse cx="350.9" cy="156.4" rx=".9" ry="2.2" fill="#ddcd8b"/>
<ellipse cx="349.30" cy="148.37" rx="1.35" ry="3.1" fill="#939b55" transform="rotate(32.5 349.30 148.37)"/>
<ellipse cx="353.90" cy="147.02" rx="1.35" ry="3.1" fill="#939b55" transform="rotate(74.5 353.90 147.02)"/>
<ellipse cx="353.27" cy="144.07" rx="1.35" ry="3.1" fill="#b5a96b" transform="rotate(30.5 353.27 144.07)"/>
<ellipse cx="357.88" cy="145.38" rx="1.35" ry="3.1" fill="#b5a96b" transform="rotate(72.5 357.88 145.38)"/>
<ellipse cx="357.20" cy="141.19" rx="1.35" ry="3.1" fill="#c9bb78" transform="rotate(28.6 357.20 141.19)"/>
<path d="M357.2 141.2 q2 3 1 5" fill="none" stroke="#d4c786" stroke-width="0.65" />
<ellipse cx="358.2" cy="147.2" rx=".9" ry="2.2" fill="#ddcd8b"/>
<ellipse cx="361.80" cy="141.35" rx="1.35" ry="3.1" fill="#c9bb78" transform="rotate(70.6 361.80 141.35)"/>
<path d="M361.8 141.4 q2 3 1 5" fill="none" stroke="#d4c786" stroke-width="0.65" />
<ellipse cx="362.8" cy="147.4" rx=".9" ry="2.2" fill="#ddcd8b"/>
<ellipse cx="361.07" cy="137.51" rx="1.35" ry="3.1" fill="#939b55" transform="rotate(26.7 361.07 137.51)"/>
<ellipse cx="365.68" cy="136.76" rx="1.35" ry="3.1" fill="#939b55" transform="rotate(68.7 365.68 136.76)"/>
<ellipse cx="364.90" cy="134.32" rx="1.35" ry="3.1" fill="#b5a96b" transform="rotate(24.9 364.90 134.32)"/>
<ellipse cx="369.50" cy="134.75" rx="1.35" ry="3.1" fill="#b5a96b" transform="rotate(66.9 369.50 134.75)"/>
<ellipse cx="368.67" cy="130.27" rx="1.35" ry="3.1" fill="#c9bb78" transform="rotate(23.2 368.67 130.27)"/>
<path d="M368.7 130.3 q2 3 1 5" fill="none" stroke="#d4c786" stroke-width="0.65" />
<ellipse cx="369.7" cy="136.3" rx=".9" ry="2.2" fill="#ddcd8b"/>
<ellipse cx="373.27" cy="129.64" rx="1.35" ry="3.1" fill="#c9bb78" transform="rotate(65.2 373.27 129.64)"/>
<path d="M373.3 129.6 q2 3 1 5" fill="none" stroke="#d4c786" stroke-width="0.65" />
<ellipse cx="374.3" cy="135.6" rx=".9" ry="2.2" fill="#ddcd8b"/>
<ellipse cx="372.40" cy="125.61" rx="1.35" ry="3.1" fill="#939b55" transform="rotate(21.5 372.40 125.61)"/>
<ellipse cx="377.00" cy="125.54" rx="1.35" ry="3.1" fill="#939b55" transform="rotate(63.5 377.00 125.54)"/>
<ellipse cx="376.07" cy="123.03" rx="1.35" ry="3.1" fill="#b5a96b" transform="rotate(19.9 376.07 123.03)"/>
<ellipse cx="380.68" cy="122.55" rx="1.35" ry="3.1" fill="#b5a96b" transform="rotate(61.9 380.68 122.55)"/>
</g>
<g id="maize-tassel-branch-6">
<path d="M300 177 Q265 168 249 133" fill="none" stroke="#9b9c59" stroke-width="1.4" />
<ellipse cx="287.63" cy="174.31" rx="1.35" ry="3.1" fill="#b5a96b" transform="rotate(-89.1 287.63 174.31)"/>
<path d="M287.6 174.3 q2 3 1 5" fill="none" stroke="#d4c786" stroke-width="0.65" />
<ellipse cx="288.6" cy="180.3" rx=".9" ry="2.2" fill="#ddcd8b"/>
<ellipse cx="292.23" cy="174.37" rx="1.35" ry="3.1" fill="#b5a96b" transform="rotate(-47.1 292.23 174.37)"/>
<path d="M292.2 174.4 q2 3 1 5" fill="none" stroke="#d4c786" stroke-width="0.65" />
<ellipse cx="293.2" cy="180.4" rx=".9" ry="2.2" fill="#ddcd8b"/>
<ellipse cx="284.46" cy="171.41" rx="1.35" ry="3.1" fill="#c9bb78" transform="rotate(-86.5 284.46 171.41)"/>
<ellipse cx="289.06" cy="172.45" rx="1.35" ry="3.1" fill="#c9bb78" transform="rotate(-44.5 289.06 172.45)"/>
<ellipse cx="281.39" cy="170.20" rx="1.35" ry="3.1" fill="#939b55" transform="rotate(-83.9 281.39 170.20)"/>
<ellipse cx="285.99" cy="170.45" rx="1.35" ry="3.1" fill="#939b55" transform="rotate(-41.9 285.99 170.45)"/>
<ellipse cx="278.41" cy="168.62" rx="1.35" ry="3.1" fill="#b5a96b" transform="rotate(-81.2 278.41 168.62)"/>
<path d="M278.4 168.6 q2 3 1 5" fill="none" stroke="#d4c786" stroke-width="0.65" />
<ellipse cx="279.4" cy="174.6" rx=".9" ry="2.2" fill="#ddcd8b"/>
<ellipse cx="283.01" cy="169.30" rx="1.35" ry="3.1" fill="#b5a96b" transform="rotate(-39.2 283.01 169.30)"/>
<path d="M283.0 169.3 q2 3 1 5" fill="none" stroke="#d4c786" stroke-width="0.65" />
<ellipse cx="284.0" cy="175.3" rx=".9" ry="2.2" fill="#ddcd8b"/>
<ellipse cx="275.53" cy="167.16" rx="1.35" ry="3.1" fill="#c9bb78" transform="rotate(-78.4 275.53 167.16)"/>
<ellipse cx="280.13" cy="166.69" rx="1.35" ry="3.1" fill="#c9bb78" transform="rotate(-36.4 280.13 166.69)"/>
<ellipse cx="272.74" cy="166.25" rx="1.35" ry="3.1" fill="#939b55" transform="rotate(-75.7 272.74 166.25)"/>
<ellipse cx="277.34" cy="166.33" rx="1.35" ry="3.1" fill="#939b55" transform="rotate(-33.7 277.34 166.33)"/>
<ellipse cx="270.05" cy="163.73" rx="1.35" ry="3.1" fill="#b5a96b" transform="rotate(-73.0 270.05 163.73)"/>
<path d="M270.0 163.7 q2 3 1 5" fill="none" stroke="#d4c786" stroke-width="0.65" />
<ellipse cx="271.0" cy="169.7" rx=".9" ry="2.2" fill="#ddcd8b"/>
<ellipse cx="274.65" cy="164.41" rx="1.35" ry="3.1" fill="#b5a96b" transform="rotate(-31.0 274.65 164.41)"/>
<path d="M274.6 164.4 q2 3 1 5" fill="none" stroke="#d4c786" stroke-width="0.65" />
<ellipse cx="275.6" cy="170.4" rx=".9" ry="2.2" fill="#ddcd8b"/>
<ellipse cx="267.45" cy="161.57" rx="1.35" ry="3.1" fill="#c9bb78" transform="rotate(-70.2 267.45 161.57)"/>
<ellipse cx="272.05" cy="160.83" rx="1.35" ry="3.1" fill="#c9bb78" transform="rotate(-28.2 272.05 160.83)"/>
<ellipse cx="264.95" cy="159.85" rx="1.35" ry="3.1" fill="#939b55" transform="rotate(-67.5 264.95 159.85)"/>
<ellipse cx="269.55" cy="159.32" rx="1.35" ry="3.1" fill="#939b55" transform="rotate(-25.5 269.55 159.32)"/>
<ellipse cx="262.54" cy="156.60" rx="1.35" ry="3.1" fill="#b5a96b" transform="rotate(-64.8 262.54 156.60)"/>
<path d="M262.5 156.6 q2 3 1 5" fill="none" stroke="#d4c786" stroke-width="0.65" />
<ellipse cx="263.5" cy="162.6" rx=".9" ry="2.2" fill="#ddcd8b"/>
<ellipse cx="267.14" cy="156.03" rx="1.35" ry="3.1" fill="#b5a96b" transform="rotate(-22.8 267.14 156.03)"/>
<path d="M267.1 156.0 q2 3 1 5" fill="none" stroke="#d4c786" stroke-width="0.65" />
<ellipse cx="268.1" cy="162.0" rx=".9" ry="2.2" fill="#ddcd8b"/>
<ellipse cx="260.23" cy="154.99" rx="1.35" ry="3.1" fill="#c9bb78" transform="rotate(-62.2 260.23 154.99)"/>
<ellipse cx="264.83" cy="153.87" rx="1.35" ry="3.1" fill="#c9bb78" transform="rotate(-20.2 264.83 153.87)"/>
<ellipse cx="258.01" cy="152.61" rx="1.35" ry="3.1" fill="#939b55" transform="rotate(-59.6 258.01 152.61)"/>
<ellipse cx="262.61" cy="151.12" rx="1.35" ry="3.1" fill="#939b55" transform="rotate(-17.6 262.61 151.12)"/>
<ellipse cx="255.89" cy="148.43" rx="1.35" ry="3.1" fill="#b5a96b" transform="rotate(-57.1 255.89 148.43)"/>
<path d="M255.9 148.4 q2 3 1 5" fill="none" stroke="#d4c786" stroke-width="0.65" />
<ellipse cx="256.9" cy="154.4" rx=".9" ry="2.2" fill="#ddcd8b"/>
<ellipse cx="260.49" cy="149.14" rx="1.35" ry="3.1" fill="#b5a96b" transform="rotate(-15.1 260.49 149.14)"/>
<path d="M260.5 149.1 q2 3 1 5" fill="none" stroke="#d4c786" stroke-width="0.65" />
<ellipse cx="261.5" cy="155.1" rx=".9" ry="2.2" fill="#ddcd8b"/>
<ellipse cx="253.86" cy="146.36" rx="1.35" ry="3.1" fill="#c9bb78" transform="rotate(-54.6 253.86 146.36)"/>
<ellipse cx="258.46" cy="146.82" rx="1.35" ry="3.1" fill="#c9bb78" transform="rotate(-12.6 258.46 146.82)"/>
<ellipse cx="251.93" cy="142.51" rx="1.35" ry="3.1" fill="#939b55" transform="rotate(-52.2 251.93 142.51)"/>
<ellipse cx="256.53" cy="142.13" rx="1.35" ry="3.1" fill="#939b55" transform="rotate(-10.2 256.53 142.13)"/>
<ellipse cx="250.09" cy="140.38" rx="1.35" ry="3.1" fill="#b5a96b" transform="rotate(-49.9 250.09 140.38)"/>
<path d="M250.1 140.4 q2 3 1 5" fill="none" stroke="#d4c786" stroke-width="0.65" />
<ellipse cx="251.1" cy="146.4" rx=".9" ry="2.2" fill="#ddcd8b"/>
<ellipse cx="254.69" cy="139.45" rx="1.35" ry="3.1" fill="#b5a96b" transform="rotate(-7.9 254.69 139.45)"/>
<path d="M254.7 139.4 q2 3 1 5" fill="none" stroke="#d4c786" stroke-width="0.65" />
<ellipse cx="255.7" cy="145.4" rx=".9" ry="2.2" fill="#ddcd8b"/>
<ellipse cx="248.35" cy="135.65" rx="1.35" ry="3.1" fill="#c9bb78" transform="rotate(-47.7 248.35 135.65)"/>
<ellipse cx="252.95" cy="136.04" rx="1.35" ry="3.1" fill="#c9bb78" transform="rotate(-5.7 252.95 136.04)"/>
</g>
<g id="maize-tassel-branch-7">
<path d="M299 142 Q300 87 299 28" fill="none" stroke="#9b9c59" stroke-width="1.4" />
<ellipse cx="296.95" cy="125.10" rx="1.35" ry="3.1" fill="#c9bb78" transform="rotate(-20.3 296.95 125.10)"/>
<ellipse cx="301.56" cy="124.48" rx="1.35" ry="3.1" fill="#c9bb78" transform="rotate(21.7 301.56 124.48)"/>
<ellipse cx="297.02" cy="120.82" rx="1.35" ry="3.1" fill="#939b55" transform="rotate(-20.4 297.02 120.82)"/>
<path d="M297.0 120.8 q2 3 1 5" fill="none" stroke="#d4c786" stroke-width="0.65" />
<ellipse cx="298.0" cy="126.8" rx=".9" ry="2.2" fill="#ddcd8b"/>
<ellipse cx="301.62" cy="120.52" rx="1.35" ry="3.1" fill="#939b55" transform="rotate(21.6 301.62 120.52)"/>
<path d="M301.6 120.5 q2 3 1 5" fill="none" stroke="#d4c786" stroke-width="0.65" />
<ellipse cx="302.6" cy="126.5" rx=".9" ry="2.2" fill="#ddcd8b"/>
<ellipse cx="297.07" cy="114.37" rx="1.35" ry="3.1" fill="#b5a96b" transform="rotate(-20.5 297.07 114.37)"/>
<ellipse cx="301.68" cy="114.15" rx="1.35" ry="3.1" fill="#b5a96b" transform="rotate(21.5 301.68 114.15)"/>
<ellipse cx="297.12" cy="107.71" rx="1.35" ry="3.1" fill="#c9bb78" transform="rotate(-20.6 297.12 107.71)"/>
<ellipse cx="301.72" cy="108.73" rx="1.35" ry="3.1" fill="#c9bb78" transform="rotate(21.4 301.72 108.73)"/>
<ellipse cx="297.15" cy="102.69" rx="1.35" ry="3.1" fill="#939b55" transform="rotate(-20.7 297.15 102.69)"/>
<path d="M297.2 102.7 q2 3 1 5" fill="none" stroke="#d4c786" stroke-width="0.65" />
<ellipse cx="298.2" cy="108.7" rx=".9" ry="2.2" fill="#ddcd8b"/>
<ellipse cx="301.75" cy="103.63" rx="1.35" ry="3.1" fill="#939b55" transform="rotate(21.3 301.75 103.63)"/>
<path d="M301.8 103.6 q2 3 1 5" fill="none" stroke="#d4c786" stroke-width="0.65" />
<ellipse cx="302.8" cy="109.6" rx=".9" ry="2.2" fill="#ddcd8b"/>
<ellipse cx="297.18" cy="96.67" rx="1.35" ry="3.1" fill="#b5a96b" transform="rotate(-20.8 297.18 96.67)"/>
<ellipse cx="301.78" cy="96.94" rx="1.35" ry="3.1" fill="#b5a96b" transform="rotate(21.2 301.78 96.94)"/>
<ellipse cx="297.20" cy="92.20" rx="1.35" ry="3.1" fill="#c9bb78" transform="rotate(-20.9 297.20 92.20)"/>
<ellipse cx="301.80" cy="92.67" rx="1.35" ry="3.1" fill="#c9bb78" transform="rotate(21.1 301.80 92.67)"/>
<ellipse cx="297.20" cy="86.07" rx="1.35" ry="3.1" fill="#939b55" transform="rotate(-21.0 297.20 86.07)"/>
<path d="M297.2 86.1 q2 3 1 5" fill="none" stroke="#d4c786" stroke-width="0.65" />
<ellipse cx="298.2" cy="92.1" rx=".9" ry="2.2" fill="#ddcd8b"/>
<ellipse cx="301.80" cy="85.65" rx="1.35" ry="3.1" fill="#939b55" transform="rotate(21.0 301.80 85.65)"/>
<path d="M301.8 85.7 q2 3 1 5" fill="none" stroke="#d4c786" stroke-width="0.65" />
<ellipse cx="302.8" cy="91.7" rx=".9" ry="2.2" fill="#ddcd8b"/>
<ellipse cx="297.19" cy="80.66" rx="1.35" ry="3.1" fill="#b5a96b" transform="rotate(-21.1 297.19 80.66)"/>
<ellipse cx="301.80" cy="81.23" rx="1.35" ry="3.1" fill="#b5a96b" transform="rotate(20.9 301.80 81.23)"/>
<ellipse cx="297.18" cy="73.62" rx="1.35" ry="3.1" fill="#c9bb78" transform="rotate(-21.2 297.18 73.62)"/>
<ellipse cx="301.78" cy="73.96" rx="1.35" ry="3.1" fill="#c9bb78" transform="rotate(20.8 301.78 73.96)"/>
<ellipse cx="297.16" cy="68.07" rx="1.35" ry="3.1" fill="#939b55" transform="rotate(-21.3 297.16 68.07)"/>
<path d="M297.2 68.1 q2 3 1 5" fill="none" stroke="#d4c786" stroke-width="0.65" />
<ellipse cx="298.2" cy="74.1" rx=".9" ry="2.2" fill="#ddcd8b"/>
<ellipse cx="301.76" cy="68.96" rx="1.35" ry="3.1" fill="#939b55" transform="rotate(20.7 301.76 68.96)"/>
<path d="M301.8 69.0 q2 3 1 5" fill="none" stroke="#d4c786" stroke-width="0.65" />
<ellipse cx="302.8" cy="75.0" rx=".9" ry="2.2" fill="#ddcd8b"/>
<ellipse cx="297.12" cy="63.72" rx="1.35" ry="3.1" fill="#b5a96b" transform="rotate(-21.4 297.12 63.72)"/>
<ellipse cx="301.72" cy="62.71" rx="1.35" ry="3.1" fill="#b5a96b" transform="rotate(20.6 301.72 62.71)"/>
<ellipse cx="297.07" cy="57.89" rx="1.35" ry="3.1" fill="#c9bb78" transform="rotate(-21.5 297.07 57.89)"/>
<ellipse cx="301.68" cy="56.28" rx="1.35" ry="3.1" fill="#c9bb78" transform="rotate(20.5 301.68 56.28)"/>
<ellipse cx="297.02" cy="50.62" rx="1.35" ry="3.1" fill="#939b55" transform="rotate(-21.6 297.02 50.62)"/>
<path d="M297.0 50.6 q2 3 1 5" fill="none" stroke="#d4c786" stroke-width="0.65" />
<ellipse cx="298.0" cy="56.6" rx=".9" ry="2.2" fill="#ddcd8b"/>
<ellipse cx="301.62" cy="50.87" rx="1.35" ry="3.1" fill="#939b55" transform="rotate(20.4 301.62 50.87)"/>
<path d="M301.6 50.9 q2 3 1 5" fill="none" stroke="#d4c786" stroke-width="0.65" />
<ellipse cx="302.6" cy="56.9" rx=".9" ry="2.2" fill="#ddcd8b"/>
<ellipse cx="296.95" cy="46.29" rx="1.35" ry="3.1" fill="#b5a96b" transform="rotate(-21.7 296.95 46.29)"/>
<ellipse cx="301.56" cy="45.82" rx="1.35" ry="3.1" fill="#b5a96b" transform="rotate(20.3 301.56 45.82)"/>
<ellipse cx="296.88" cy="38.88" rx="1.35" ry="3.1" fill="#c9bb78" transform="rotate(-21.8 296.88 38.88)"/>
<ellipse cx="301.48" cy="40.16" rx="1.35" ry="3.1" fill="#c9bb78" transform="rotate(20.2 301.48 40.16)"/>
<ellipse cx="296.79" cy="34.64" rx="1.35" ry="3.1" fill="#939b55" transform="rotate(-21.9 296.79 34.64)"/>
<path d="M296.8 34.6 q2 3 1 5" fill="none" stroke="#d4c786" stroke-width="0.65" />
<ellipse cx="297.8" cy="40.6" rx=".9" ry="2.2" fill="#ddcd8b"/>
<ellipse cx="301.39" cy="33.78" rx="1.35" ry="3.1" fill="#939b55" transform="rotate(20.1 301.39 33.78)"/>
<path d="M301.4 33.8 q2 3 1 5" fill="none" stroke="#d4c786" stroke-width="0.65" />
<ellipse cx="302.4" cy="39.8" rx=".9" ry="2.2" fill="#ddcd8b"/>
</g>
</g>
<g id="whole-maize-brace-roots" fill="none" stroke-linecap="round">
<path d="M294.0 618 Q256 632 256 659" fill="none" stroke="#857744" stroke-width="4.7" />
<path d="M294.0 618 Q256 632 256 659" fill="none" stroke="#a2a968" stroke-width="2.6" />
<path d="M256 659 q-7.9 12 -10.1 22" fill="none" stroke="#ae9570" stroke-width="1.3" />
<path d="M296.3 628 Q274 642 274 670" fill="none" stroke="#857744" stroke-width="4.7" />
<path d="M296.3 628 Q274 642 274 670" fill="none" stroke="#a2a968" stroke-width="2.6" />
<path d="M274 670 q-4.7 12 -6.0 22" fill="none" stroke="#ae9570" stroke-width="1.3" />
<path d="M298.6 618 Q291 632 291 665" fill="none" stroke="#857744" stroke-width="4.7" />
<path d="M298.6 618 Q291 632 291 665" fill="none" stroke="#a2a968" stroke-width="2.6" />
<path d="M291 665 q-1.6 12 -2.1 22" fill="none" stroke="#ae9570" stroke-width="1.3" />
<path d="M300.9 628 Q317 642 317 669" fill="none" stroke="#857744" stroke-width="4.7" />
<path d="M300.9 628 Q317 642 317 669" fill="none" stroke="#a2a968" stroke-width="2.6" />
<path d="M317 669 q3.1 12 3.9 22" fill="none" stroke="#ae9570" stroke-width="1.3" />
<path d="M303.2 618 Q337 632 337 660" fill="none" stroke="#857744" stroke-width="4.7" />
<path d="M303.2 618 Q337 632 337 660" fill="none" stroke="#a2a968" stroke-width="2.6" />
<path d="M337 660 q6.7 12 8.5 22" fill="none" stroke="#ae9570" stroke-width="1.3" />
<path d="M305.5 628 Q352 642 352 652" fill="none" stroke="#857744" stroke-width="4.7" />
<path d="M305.5 628 Q352 642 352 652" fill="none" stroke="#a2a968" stroke-width="2.6" />
<path d="M352 652 q9.4 12 12.0 22" fill="none" stroke="#ae9570" stroke-width="1.3" />
</g></g></svg>