<svg xmlns="http://www.w3.org/2000/svg" width="800" height="640" viewBox="0 0 400 320">
<title>工业烟羽与沉降</title><desc>烟羽与烟囱开口连续相接，在向右输送时变宽、变淡。下风向粒子和两支向下箭头表示地表沉降，箭头不编码速率。</desc>
<g id="atm_pollution" stroke-linecap="round" stroke-linejoin="round">
 <g id="receiving-ground">
  <path d="M26 267 C76 252 126 258 176 254 C230 245 281 249 325 254 C345 256 368 262 375 269 C360 281 310 285 269 282 C204 287 164 279 114 282 C73 281 41 276 26 267 Z" fill="#a6b08c"/>
  <path d="M29 267 C69 258 132 261 164 258 L181 273 C133 280 67 278 29 267 Z" fill="#aeac95"/>
 </g>
 <g id="main-smoke-plume">
  <path d="M100 148 C96 131 100 114 111 105 C126 91 141 96 157 85 C178 70 189 79 206 70 C225 60 240 71 254 65 C277 53 288 69 307 62 C329 55 356 68 369 79 C376 86 374 95 365 99 C376 107 374 118 364 121 C352 127 340 118 327 123 C308 131 298 118 281 122 C259 128 248 115 229 122 C211 128 199 115 181 120 C163 126 152 116 138 124 C125 131 125 140 122 148 Z" fill="#c4c7bc" opacity=".46"/>
  <path d="M100 148 C98 130 105 118 117 110 C132 99 143 105 158 96 C176 87 189 96 205 86 C220 80 234 90 249 84 C267 77 280 87 294 86 C310 83 327 88 331 97 C315 97 315 108 300 109 C284 113 274 103 259 109 C244 115 230 104 217 108 C198 114 186 105 172 110 C156 116 143 109 132 119 C122 127 120 139 121 148 Z" fill="#aab2a8" opacity=".58"/>
  <path d="M102 148 C100 132 108 121 121 117 C132 113 143 118 152 111 C165 103 175 108 181 112 C168 111 165 121 151 122 C136 121 127 130 123 141 L121 149 Z" fill="#87978f" opacity=".65"/>
 </g>
 <g id="secondary-smoke"><path d="M147 174 C145 161 150 150 160 145 C173 139 183 144 194 138 C208 130 222 136 230 143 C217 142 213 153 201 154 C186 156 174 150 166 161 C163 165 161 171 161 175 Z" fill="#b4bdb0" opacity=".6"/></g>
 <g id="factory">
  <g id="main-stack"><path d="M98 222 L101 148 L121 148 L125 221 Z" fill="#b0b7ab"/><path d="M115 148 L121 148 L125 221 L116 221 Z" fill="#889b95"/><path d="M101 148 Q110 144 121 148 L121 152 Q111 156 101 152 Z" fill="#6c817b"/></g>
  <g id="secondary-stack"><path d="M145 223 L147 175 L160 175 L163 223 Z" fill="#a2aea4"/><path d="M147 175 Q153 172 160 175 L160 179 Q153 181 147 179 Z" fill="#6c817b"/></g>
  <g id="factory-hall"><path d="M43 215 L139 215 L160 204 L160 260 L139 271 L43 265 Z" fill="#c0c6b6"/><path d="M139 215 L160 204 L160 260 L139 271 Z" fill="#8b9f96"/><path d="M40 216 L63 198 L80 207 L102 193 L119 203 L142 190 L160 204 L139 215 Z" fill="#7f958b"/>
   <path d="M55 230 L68 230 L68 243 L55 243 Z M80 230 L93 230 L93 243 L80 243 Z M106 230 L119 230 L119 243 L106 243 Z" fill="#739aa2"/>
   <path d="M99 250 L118 250 L118 269 L99 268 Z" fill="#7f8f82"/>
  </g>
 </g>
 <g id="deposition-particles" fill="#7d9085" opacity=".6">
  <circle cx="239" cy="137" r="1.5"/><circle cx="274" cy="153" r="1.7"/><circle cx="318" cy="145" r="1.4"/><circle cx="297" cy="178" r="1.2"/><circle cx="247" cy="184" r="1.3"/><circle cx="333" cy="196" r="1.4"/><circle cx="226" cy="219" r="1.2"/><circle cx="287" cy="239" r="1.5"/>
 </g>
 <g id="deposition-direction" fill="none" stroke="#91a38c" stroke-width="1.5"><path d="M259 177 L259 228 M255 222 L259 228 L263 222 M320 191 L320 241 M316 235 L320 241 L324 235"/></g>
 <g id="ground-grasses" fill="none" stroke="#748f6c" stroke-width="1.6"><path d="M246 266 C240 258 235 255 231 257 M246 266 Q245 254 250 251 M246 266 Q254 257 260 260 M345 268 Q338 261 333 263 M345 268 Q345 255 350 251 M345 268 Q351 260 358 261 M286 274 Q284 267 278 266 M286 274 Q289 267 294 267"/></g>
</g></svg>
