<svg xmlns="http://www.w3.org/2000/svg" viewBox="0 0 400 320" width="800" height="640"><title>三层关系网络</title><desc>三层关系网络。节点按实体组织，边按关系类型分组。通用科研示意，各主体和附属结构分组可编辑。</desc><g id="info_network" stroke="#2b5662" stroke-width="2" stroke-linecap="round" stroke-linejoin="round"><g id="edges"><path d="M200 62L84 161" fill="none" stroke="#58a6b3" stroke-width="2.5"/><path d="M200 62L200 162" fill="none" stroke="#58a6b3" stroke-width="2.5"/><path d="M200 62L316 161" fill="none" stroke="#58a6b3" stroke-width="2.5"/><path d="M84 161L57 260" fill="none" stroke="#58a6b3" stroke-width="2.5"/><path d="M84 161L143 260" fill="none" stroke="#58a6b3" stroke-width="2.5"/><path d="M200 162L143 260" fill="none" stroke="#58a6b3" stroke-width="2.5"/><path d="M200 162L257 260" fill="none" stroke="#58a6b3" stroke-width="2.5"/><path d="M316 161L257 260" fill="none" stroke="#58a6b3" stroke-width="2.5"/><path d="M316 161L344 260" fill="none" stroke="#58a6b3" stroke-width="2.5"/></g><g id="nodes"><g id="node-1"><ellipse cx="200" cy="62" rx="24" ry="24" fill="#e8ad66"/><text x="200" y="67" fill="#2b5662" stroke="none" font-family="Microsoft YaHei,Arial,sans-serif" font-size="15" text-anchor="middle">1</text></g><g id="node-2"><ellipse cx="84" cy="161" rx="24" ry="24" fill="#86b7d3"/><text x="84" y="166" fill="#2b5662" stroke="none" font-family="Microsoft YaHei,Arial,sans-serif" font-size="15" text-anchor="middle">2</text></g><g id="node-3"><ellipse cx="200" cy="162" rx="24" ry="24" fill="#86b7d3"/><text x="200" y="167" fill="#2b5662" stroke="none" font-family="Microsoft YaHei,Arial,sans-serif" font-size="15" text-anchor="middle">3</text></g><g id="node-4"><ellipse cx="316" cy="161" rx="24" ry="24" fill="#86b7d3"/><text x="316" y="166" fill="#2b5662" stroke="none" font-family="Microsoft YaHei,Arial,sans-serif" font-size="15" text-anchor="middle">4</text></g><g id="node-5"><ellipse cx="57" cy="260" rx="24" ry="24" fill="#79ad92"/><text x="57" y="265" fill="#2b5662" stroke="none" font-family="Microsoft YaHei,Arial,sans-serif" font-size="15" text-anchor="middle">5</text></g><g id="node-6"><ellipse cx="143" cy="260" rx="24" ry="24" fill="#79ad92"/><text x="143" y="265" fill="#2b5662" stroke="none" font-family="Microsoft YaHei,Arial,sans-serif" font-size="15" text-anchor="middle">6</text></g><g id="node-7"><ellipse cx="257" cy="260" rx="24" ry="24" fill="#79ad92"/><text x="257" y="265" fill="#2b5662" stroke="none" font-family="Microsoft YaHei,Arial,sans-serif" font-size="15" text-anchor="middle">7</text></g><g id="node-8"><ellipse cx="344" cy="260" rx="24" ry="24" fill="#79ad92"/><text x="344" y="265" fill="#2b5662" stroke="none" font-family="Microsoft YaHei,Arial,sans-serif" font-size="15" text-anchor="middle">8</text></g></g><g id="relations"><path d="M103 146Q200 119 296 146" fill="none" stroke="#a99cc7" stroke-width="3"/></g></g></svg>