<svg xmlns="http://www.w3.org/2000/svg" viewBox="0 0 400 320" width="800" height="640"><title id="asset-title">液相色谱模块与流路</title><desc>液相色谱的溶剂瓶、泵/进样模块、色谱柱、检测器和连接流路；各模块与管线可独立编辑。</desc><g id="lab_chromatography" stroke-linejoin="round" stroke-linecap="round"><g id="solvent-bottles"><rect x="56" y="69" width="33" height="60" rx="4" fill="#f4f8f8" stroke="#2b5662" stroke-width="2"/><rect x="104" y="69" width="33" height="60" rx="4" fill="#f4f8f8" stroke="#2b5662" stroke-width="2"/><rect x="54" y="61" width="37" height="11" rx="3" fill="#2b5662" stroke="#2b5662" stroke-width="2"/><rect x="102" y="61" width="37" height="11" rx="3" fill="#2b5662" stroke="#2b5662" stroke-width="2"/><rect x="58" y="94" width="29" height="32" rx="2" fill="#86b7d3" stroke="none" stroke-width="2"/><rect x="106" y="89" width="29" height="37" rx="2" fill="#58a6b3" stroke="none" stroke-width="2"/></g><g id="pump-injector"><rect x="46" y="161" width="111" height="82" rx="7" fill="#d8e4e6" stroke="#2b5662" stroke-width="2"/><rect x="59" y="174" width="81" height="20" rx="3" fill="#2b5662" stroke="#2b5662" stroke-width="2"/><text x="99" y="189" fill="#f4f8f8" stroke="none" font-family="Arial, sans-serif" font-size="10" text-anchor="middle">0.5 mL/min</text><circle cx="73" cy="216" r="9" fill="#58a6b3" stroke="#2b5662" stroke-width="2"/><circle cx="129" cy="216" r="9" fill="#e8ad66" stroke="#2b5662" stroke-width="2"/></g><g id="column"><rect x="199" y="91" width="28" height="161" rx="9" fill="#86b7d3" stroke="#2b5662" stroke-width="2"/><rect x="195" y="106" width="36" height="11" rx="0" fill="#d8e4e6" stroke="#2b5662" stroke-width="2"/><rect x="195" y="225" width="36" height="11" rx="0" fill="#d8e4e6" stroke="#2b5662" stroke-width="2"/></g><g id="detector"><rect x="268" y="157" width="82" height="79" rx="7" fill="#d8e4e6" stroke="#2b5662" stroke-width="2"/><rect x="279" y="170" width="61" height="39" rx="3" fill="#2b5662" stroke="#2b5662" stroke-width="2"/><path d="M285 198 L295 198 L300 181 L304 198 L310 198 L320 178 L328 198 L334 198" fill="none" stroke="#86b7d3" stroke-width="2" /></g><g id="fluid-path"><path d="M73 61 V44 H177 V207 H157 M119 61 V52 H168 V199 H157 M157 229 H178 V266 H213 V252 M213 91 V69 H307 V157" fill="none" stroke="#58a6b3" stroke-width="3" /></g></g></svg>