<svg xmlns="http://www.w3.org/2000/svg" viewBox="0 0 400 320" width="800" height="640"><title id="asset-title">扫描电子显微镜剖面</title><desc>扫描电镜通用剖面；电子光学柱、样品腔、样品台、侧向探测器、真空泵和控制端可分别编辑。</desc><g id="lab_electron_microscopy" stroke-linejoin="round" stroke-linecap="round"><g id="column"><rect x="156" y="41" width="62" height="109" rx="8" fill="#d8e4e6" stroke="#2b5662" stroke-width="2"/><rect x="165" y="31" width="44" height="24" rx="6" fill="#58a6b3" stroke="#2b5662" stroke-width="2"/></g><g id="electron-optics"><path d="M187 64 L171 94 L187 124 L202 94 Z" fill="#86b7d3" stroke="#2b5662" stroke-width="2" /><line x1="187" y1="58" x2="187" y2="171" stroke="#e8ad66" stroke-width="2" /><rect x="156" y="89" width="62" height="15" rx="0" fill="#86b7d3" stroke="#2b5662" stroke-width="2"/></g><g id="specimen-chamber"><rect x="94" y="151" width="186" height="121" rx="11" fill="#d8e4e6" stroke="#2b5662" stroke-width="2"/><rect x="111" y="167" width="151" height="85" rx="5" fill="#f4f8f8" stroke="#2b5662" stroke-width="2"/></g><g id="stage-sample"><rect x="163" y="214" width="53" height="14" rx="0" fill="#58a6b3" stroke="#2b5662" stroke-width="2"/><rect x="186" y="228" width="10" height="23" rx="0" fill="#d8e4e6" stroke="#2b5662" stroke-width="2"/><polygon points="175,213 201,213 196,204 180,204" fill="#e8ad66" stroke="#2b5662" stroke-width="2"/></g><g id="detector"><polygon points="225,177 248,189 242,204 220,192" fill="#a99cc7" stroke="#2b5662" stroke-width="2"/><path d="M220 192 L199 206" fill="none" stroke="#a99cc7" stroke-width="2" /></g><g id="vacuum-pump"><path d="M279 231 H308 V210" fill="none" stroke="#2b5662" stroke-width="7" /><rect x="291" y="178" width="58" height="39" rx="8" fill="#86b7d3" stroke="#2b5662" stroke-width="2"/><rect x="297" y="217" width="49" height="9" rx="2" fill="#d8e4e6" stroke="#2b5662" stroke-width="2"/></g><g id="console"><rect x="45" y="187" width="37" height="48" rx="4" fill="#2b5662" stroke="#2b5662" stroke-width="2"/><rect x="49" y="192" width="29" height="29" rx="2" fill="#86b7d3" stroke="#2b5662" stroke-width="2"/><line x1="62" y1="236" x2="62" y2="259" stroke="#2b5662" stroke-width="5" /></g></g></svg>