<svg xmlns="http://www.w3.org/2000/svg" width="800" height="640" viewBox="0 0 400 320"><title id="title">球形古菌结构示意</title><desc id="desc">表层、细胞膜、内部核区及运动附属丝分别编辑。</desc><g id="microbe_archaeon" stroke-linecap="round" stroke-linejoin="round"><g id="archaella-439"><path d="M284.28572569434675 180.08556244837527C339.1694540534563 176.9068531556543 306.82725698469534 191.6083836344888 344.0697869426625 188.0323356801777" fill="none" stroke="#a99cc7" stroke-width="2.5" stroke-linecap="round" stroke-linejoin="round" /><path d="M239.00926644259965 239.64383296528345C264.410649242432 225.38451520430047 249.44197723538792 291.3338598488467 266.67862984955985 275.2921273677409" fill="none" stroke="#a99cc7" stroke-width="2.5" stroke-linecap="round" stroke-linejoin="round" /><path d="M156.58323500441224 237.23600553180313C128.31185314682023 223.42465566542117 144.97177459861553 287.3021487974378 125.78762262382094 271.7643801977581" fill="none" stroke="#a99cc7" stroke-width="2.5" stroke-linecap="round" stroke-linejoin="round" /><path d="M115.07673978783762 149.43387030368066C59.777872672941186 151.95780140997263 92.36470507993373 140.28462004337226 54.84047382339685 143.12404253795071" fill="none" stroke="#a99cc7" stroke-width="2.5" stroke-linecap="round" stroke-linejoin="round" /><path d="M157.83756936469985 88.04448357243142C130.38296336962068 101.98969593104883 146.56157047386375 37.4930887724433 127.93165926291718 53.18145267588788" fill="none" stroke="#a99cc7" stroke-width="2.5" stroke-linecap="round" stroke-linejoin="round" /><path d="M240.29243373183243 87.02289960806684C266.52936732465355 101.15817409958927 251.0683171717411 35.78252957629795 268.87195068115545 51.6847133792607" fill="none" stroke="#a99cc7" stroke-width="2.5" stroke-linecap="round" stroke-linejoin="round" /></g><g id="surface-layer-440"><ellipse cx="200" cy="162" rx="87" ry="87" fill="#a99cc7" stroke="#2b5662" stroke-width="2" /><ellipse cx="200" cy="162" rx="76" ry="76" fill="#d2c9e3" stroke="#2b5662" stroke-width="2" /></g><g id="membrane-441"><ellipse cx="200" cy="162" rx="66" ry="66" fill="#c3dce9" stroke="#2b5662" stroke-width="2" /></g><g id="nucleoid-442"><path d="M167 145C209 108 245 182 211 191C177 211 165 163 206 142C241 139 241 186 170 184" fill="none" stroke="#866ca4" stroke-width="4" stroke-linecap="round" stroke-linejoin="round" /></g><g id="ribosomes-443"><ellipse cx="170" cy="124" rx="3.5" ry="3.5" fill="#2b5662" stroke="none" stroke-width="2" /><ellipse cx="225" cy="123" rx="3.5" ry="3.5" fill="#2b5662" stroke="none" stroke-width="2" /><ellipse cx="239" cy="153" rx="3.5" ry="3.5" fill="#2b5662" stroke="none" stroke-width="2" /><ellipse cx="165" cy="180" rx="3.5" ry="3.5" fill="#2b5662" stroke="none" stroke-width="2" /><ellipse cx="196" cy="209" rx="3.5" ry="3.5" fill="#2b5662" stroke="none" stroke-width="2" /><ellipse cx="232" cy="194" rx="3.5" ry="3.5" fill="#2b5662" stroke="none" stroke-width="2" /><ellipse cx="160" cy="155" rx="3.5" ry="3.5" fill="#2b5662" stroke="none" stroke-width="2" /></g></g></svg>