<svg xmlns="http://www.w3.org/2000/svg" width="800" height="640" viewBox="0 0 400 320"><title id="title">具孢蒴的藓丛</title><desc id="desc">各茎叶体与孢子体分别编辑，孢子体包含蒴柄、孢蒴和蒴帽示意。</desc><g id="plant_bryophyte" stroke-linecap="round" stroke-linejoin="round"><g id="substrate-146"><path d="M56 278Q200 261 342 280" fill="none" stroke="#ad976e" stroke-width="4" stroke-linecap="round" stroke-linejoin="round" /></g><g id="moss-shoot-156"><g id="stem-147"><path d="M81 274L78 227" fill="none" stroke="#4f8976" stroke-width="3" stroke-linecap="round" stroke-linejoin="round" /></g><g id="leaf-148"><path d="M79 266Q77.84390950216007 256.7136683905428 64 252Q66.65609049783993 262.6863316094572 79 266Z" fill="#79ad92" stroke="#2b5662" stroke-width="2" stroke-linecap="round" stroke-linejoin="round" /><path d="M79 266L66.25 254.1" fill="none" stroke="#4f8976" stroke-width="1.2" stroke-linecap="round" stroke-linejoin="round" /></g><g id="leaf-149"><path d="M79 261Q88.49264068711929 259.99264068711926 94 246Q83.00735931288071 248.5073593128807 79 261Z" fill="#79ad92" stroke="#2b5662" stroke-width="2" stroke-linecap="round" stroke-linejoin="round" /><path d="M79 261L91.75 248.25" fill="none" stroke="#4f8976" stroke-width="1.2" stroke-linecap="round" stroke-linejoin="round" /></g><g id="leaf-150"><path d="M79 254Q77.84390950216007 244.71366839054278 64 240Q66.65609049783993 250.68633160945723 79 254Z" fill="#79ad92" stroke="#2b5662" stroke-width="2" stroke-linecap="round" stroke-linejoin="round" /><path d="M79 254L66.25 242.1" fill="none" stroke="#4f8976" stroke-width="1.2" stroke-linecap="round" stroke-linejoin="round" /></g><g id="leaf-151"><path d="M79 249Q88.49264068711929 247.9926406871193 94 234Q83.00735931288071 236.5073593128807 79 249Z" fill="#79ad92" stroke="#2b5662" stroke-width="2" stroke-linecap="round" stroke-linejoin="round" /><path d="M79 249L91.75 236.25" fill="none" stroke="#4f8976" stroke-width="1.2" stroke-linecap="round" stroke-linejoin="round" /></g><g id="leaf-152"><path d="M79 242Q77.84390950216007 232.71366839054278 64 228Q66.65609049783993 238.68633160945723 79 242Z" fill="#79ad92" stroke="#2b5662" stroke-width="2" stroke-linecap="round" stroke-linejoin="round" /><path d="M79 242L66.25 230.1" fill="none" stroke="#4f8976" stroke-width="1.2" stroke-linecap="round" stroke-linejoin="round" /></g><g id="leaf-153"><path d="M79 237Q88.49264068711929 235.9926406871193 94 222Q83.00735931288071 224.5073593128807 79 237Z" fill="#79ad92" stroke="#2b5662" stroke-width="2" stroke-linecap="round" stroke-linejoin="round" /><path d="M79 237L91.75 224.25" fill="none" stroke="#4f8976" stroke-width="1.2" stroke-linecap="round" stroke-linejoin="round" /></g><g id="leaf-154"><path d="M79 230Q77.84390950216007 220.71366839054278 64 216Q66.65609049783993 226.68633160945723 79 230Z" fill="#79ad92" stroke="#2b5662" stroke-width="2" stroke-linecap="round" stroke-linejoin="round" /><path d="M79 230L66.25 218.1" fill="none" stroke="#4f8976" stroke-width="1.2" stroke-linecap="round" stroke-linejoin="round" /></g><g id="leaf-155"><path d="M79 225Q88.49264068711929 223.9926406871193 94 210Q83.00735931288071 212.5073593128807 79 225Z" fill="#79ad92" stroke="#2b5662" stroke-width="2" stroke-linecap="round" stroke-linejoin="round" /><path d="M79 225L91.75 212.25" fill="none" stroke="#4f8976" stroke-width="1.2" stroke-linecap="round" stroke-linejoin="round" /></g></g><g id="moss-shoot-166"><g id="stem-157"><path d="M109 274L106 213" fill="none" stroke="#4f8976" stroke-width="3" stroke-linecap="round" stroke-linejoin="round" /></g><g id="leaf-158"><path d="M107 266Q105.84390950216007 256.7136683905428 92 252Q94.65609049783993 262.6863316094572 107 266Z" fill="#79ad92" stroke="#2b5662" stroke-width="2" stroke-linecap="round" stroke-linejoin="round" /><path d="M107 266L94.25 254.1" fill="none" stroke="#4f8976" stroke-width="1.2" stroke-linecap="round" stroke-linejoin="round" /></g><g id="leaf-159"><path d="M107 261Q116.49264068711929 259.99264068711926 122 246Q111.00735931288071 248.5073593128807 107 261Z" fill="#79ad92" stroke="#2b5662" stroke-width="2" stroke-linecap="round" stroke-linejoin="round" /><path d="M107 261L119.75 248.25" fill="none" stroke="#4f8976" stroke-width="1.2" stroke-linecap="round" stroke-linejoin="round" /></g><g id="leaf-160"><path d="M107 254Q105.84390950216007 244.71366839054278 92 240Q94.65609049783993 250.68633160945723 107 254Z" fill="#79ad92" stroke="#2b5662" stroke-width="2" stroke-linecap="round" stroke-linejoin="round" /><path d="M107 254L94.25 242.1" fill="none" stroke="#4f8976" stroke-width="1.2" stroke-linecap="round" stroke-linejoin="round" /></g><g id="leaf-161"><path d="M107 249Q116.49264068711929 247.9926406871193 122 234Q111.00735931288071 236.5073593128807 107 249Z" fill="#79ad92" stroke="#2b5662" stroke-width="2" stroke-linecap="round" stroke-linejoin="round" /><path d="M107 249L119.75 236.25" fill="none" stroke="#4f8976" stroke-width="1.2" stroke-linecap="round" stroke-linejoin="round" /></g><g id="leaf-162"><path d="M107 242Q105.84390950216007 232.71366839054278 92 228Q94.65609049783993 238.68633160945723 107 242Z" fill="#79ad92" stroke="#2b5662" stroke-width="2" stroke-linecap="round" stroke-linejoin="round" /><path d="M107 242L94.25 230.1" fill="none" stroke="#4f8976" stroke-width="1.2" stroke-linecap="round" stroke-linejoin="round" /></g><g id="leaf-163"><path d="M107 237Q116.49264068711929 235.9926406871193 122 222Q111.00735931288071 224.5073593128807 107 237Z" fill="#79ad92" stroke="#2b5662" stroke-width="2" stroke-linecap="round" stroke-linejoin="round" /><path d="M107 237L119.75 224.25" fill="none" stroke="#4f8976" stroke-width="1.2" stroke-linecap="round" stroke-linejoin="round" /></g><g id="leaf-164"><path d="M107 230Q105.84390950216007 220.71366839054278 92 216Q94.65609049783993 226.68633160945723 107 230Z" fill="#79ad92" stroke="#2b5662" stroke-width="2" stroke-linecap="round" stroke-linejoin="round" /><path d="M107 230L94.25 218.1" fill="none" stroke="#4f8976" stroke-width="1.2" stroke-linecap="round" stroke-linejoin="round" /></g><g id="leaf-165"><path d="M107 225Q116.49264068711929 223.9926406871193 122 210Q111.00735931288071 212.5073593128807 107 225Z" fill="#79ad92" stroke="#2b5662" stroke-width="2" stroke-linecap="round" stroke-linejoin="round" /><path d="M107 225L119.75 212.25" fill="none" stroke="#4f8976" stroke-width="1.2" stroke-linecap="round" stroke-linejoin="round" /></g></g><g id="moss-shoot-176"><g id="stem-167"><path d="M137 274L134 199" fill="none" stroke="#4f8976" stroke-width="3" stroke-linecap="round" stroke-linejoin="round" /></g><g id="leaf-168"><path d="M135 266Q133.84390950216007 256.7136683905428 120 252Q122.65609049783993 262.6863316094572 135 266Z" fill="#79ad92" stroke="#2b5662" stroke-width="2" stroke-linecap="round" stroke-linejoin="round" /><path d="M135 266L122.25 254.1" fill="none" stroke="#4f8976" stroke-width="1.2" stroke-linecap="round" stroke-linejoin="round" /></g><g id="leaf-169"><path d="M135 261Q144.4926406871193 259.99264068711926 150 246Q139.0073593128807 248.5073593128807 135 261Z" fill="#79ad92" stroke="#2b5662" stroke-width="2" stroke-linecap="round" stroke-linejoin="round" /><path d="M135 261L147.75 248.25" fill="none" stroke="#4f8976" stroke-width="1.2" stroke-linecap="round" stroke-linejoin="round" /></g><g id="leaf-170"><path d="M135 254Q133.84390950216007 244.71366839054278 120 240Q122.65609049783993 250.68633160945723 135 254Z" fill="#79ad92" stroke="#2b5662" stroke-width="2" stroke-linecap="round" stroke-linejoin="round" /><path d="M135 254L122.25 242.1" fill="none" stroke="#4f8976" stroke-width="1.2" stroke-linecap="round" stroke-linejoin="round" /></g><g id="leaf-171"><path d="M135 249Q144.4926406871193 247.9926406871193 150 234Q139.0073593128807 236.5073593128807 135 249Z" fill="#79ad92" stroke="#2b5662" stroke-width="2" stroke-linecap="round" stroke-linejoin="round" /><path d="M135 249L147.75 236.25" fill="none" stroke="#4f8976" stroke-width="1.2" stroke-linecap="round" stroke-linejoin="round" /></g><g id="leaf-172"><path d="M135 242Q133.84390950216007 232.71366839054278 120 228Q122.65609049783993 238.68633160945723 135 242Z" fill="#79ad92" stroke="#2b5662" stroke-width="2" stroke-linecap="round" stroke-linejoin="round" /><path d="M135 242L122.25 230.1" fill="none" stroke="#4f8976" stroke-width="1.2" stroke-linecap="round" stroke-linejoin="round" /></g><g id="leaf-173"><path d="M135 237Q144.4926406871193 235.9926406871193 150 222Q139.0073593128807 224.5073593128807 135 237Z" fill="#79ad92" stroke="#2b5662" stroke-width="2" stroke-linecap="round" stroke-linejoin="round" /><path d="M135 237L147.75 224.25" fill="none" stroke="#4f8976" stroke-width="1.2" stroke-linecap="round" stroke-linejoin="round" /></g><g id="leaf-174"><path d="M135 230Q133.84390950216007 220.71366839054278 120 216Q122.65609049783993 226.68633160945723 135 230Z" fill="#79ad92" stroke="#2b5662" stroke-width="2" stroke-linecap="round" stroke-linejoin="round" /><path d="M135 230L122.25 218.1" fill="none" stroke="#4f8976" stroke-width="1.2" stroke-linecap="round" stroke-linejoin="round" /></g><g id="leaf-175"><path d="M135 225Q144.4926406871193 223.9926406871193 150 210Q139.0073593128807 212.5073593128807 135 225Z" fill="#79ad92" stroke="#2b5662" stroke-width="2" stroke-linecap="round" stroke-linejoin="round" /><path d="M135 225L147.75 212.25" fill="none" stroke="#4f8976" stroke-width="1.2" stroke-linecap="round" stroke-linejoin="round" /></g></g><g id="moss-shoot-186"><g id="stem-177"><path d="M165 274L162 227" fill="none" stroke="#4f8976" stroke-width="3" stroke-linecap="round" stroke-linejoin="round" /></g><g id="leaf-178"><path d="M163 266Q161.84390950216007 256.7136683905428 148 252Q150.65609049783993 262.6863316094572 163 266Z" fill="#79ad92" stroke="#2b5662" stroke-width="2" stroke-linecap="round" stroke-linejoin="round" /><path d="M163 266L150.25 254.1" fill="none" stroke="#4f8976" stroke-width="1.2" stroke-linecap="round" stroke-linejoin="round" /></g><g id="leaf-179"><path d="M163 261Q172.4926406871193 259.99264068711926 178 246Q167.0073593128807 248.5073593128807 163 261Z" fill="#79ad92" stroke="#2b5662" stroke-width="2" stroke-linecap="round" stroke-linejoin="round" /><path d="M163 261L175.75 248.25" fill="none" stroke="#4f8976" stroke-width="1.2" stroke-linecap="round" stroke-linejoin="round" /></g><g id="leaf-180"><path d="M163 254Q161.84390950216007 244.71366839054278 148 240Q150.65609049783993 250.68633160945723 163 254Z" fill="#79ad92" stroke="#2b5662" stroke-width="2" stroke-linecap="round" stroke-linejoin="round" /><path d="M163 254L150.25 242.1" fill="none" stroke="#4f8976" stroke-width="1.2" stroke-linecap="round" stroke-linejoin="round" /></g><g id="leaf-181"><path d="M163 249Q172.4926406871193 247.9926406871193 178 234Q167.0073593128807 236.5073593128807 163 249Z" fill="#79ad92" stroke="#2b5662" stroke-width="2" stroke-linecap="round" stroke-linejoin="round" /><path d="M163 249L175.75 236.25" fill="none" stroke="#4f8976" stroke-width="1.2" stroke-linecap="round" stroke-linejoin="round" /></g><g id="leaf-182"><path d="M163 242Q161.84390950216007 232.71366839054278 148 228Q150.65609049783993 238.68633160945723 163 242Z" fill="#79ad92" stroke="#2b5662" stroke-width="2" stroke-linecap="round" stroke-linejoin="round" /><path d="M163 242L150.25 230.1" fill="none" stroke="#4f8976" stroke-width="1.2" stroke-linecap="round" stroke-linejoin="round" /></g><g id="leaf-183"><path d="M163 237Q172.4926406871193 235.9926406871193 178 222Q167.0073593128807 224.5073593128807 163 237Z" fill="#79ad92" stroke="#2b5662" stroke-width="2" stroke-linecap="round" stroke-linejoin="round" /><path d="M163 237L175.75 224.25" fill="none" stroke="#4f8976" stroke-width="1.2" stroke-linecap="round" stroke-linejoin="round" /></g><g id="leaf-184"><path d="M163 230Q161.84390950216007 220.71366839054278 148 216Q150.65609049783993 226.68633160945723 163 230Z" fill="#79ad92" stroke="#2b5662" stroke-width="2" stroke-linecap="round" stroke-linejoin="round" /><path d="M163 230L150.25 218.1" fill="none" stroke="#4f8976" stroke-width="1.2" stroke-linecap="round" stroke-linejoin="round" /></g><g id="leaf-185"><path d="M163 225Q172.4926406871193 223.9926406871193 178 210Q167.0073593128807 212.5073593128807 163 225Z" fill="#79ad92" stroke="#2b5662" stroke-width="2" stroke-linecap="round" stroke-linejoin="round" /><path d="M163 225L175.75 212.25" fill="none" stroke="#4f8976" stroke-width="1.2" stroke-linecap="round" stroke-linejoin="round" /></g></g><g id="moss-shoot-196"><g id="stem-187"><path d="M193 274L190 213" fill="none" stroke="#4f8976" stroke-width="3" stroke-linecap="round" stroke-linejoin="round" /></g><g id="leaf-188"><path d="M191 266Q189.84390950216007 256.7136683905428 176 252Q178.65609049783993 262.6863316094572 191 266Z" fill="#79ad92" stroke="#2b5662" stroke-width="2" stroke-linecap="round" stroke-linejoin="round" /><path d="M191 266L178.25 254.1" fill="none" stroke="#4f8976" stroke-width="1.2" stroke-linecap="round" stroke-linejoin="round" /></g><g id="leaf-189"><path d="M191 261Q200.4926406871193 259.99264068711926 206 246Q195.0073593128807 248.5073593128807 191 261Z" fill="#79ad92" stroke="#2b5662" stroke-width="2" stroke-linecap="round" stroke-linejoin="round" /><path d="M191 261L203.75 248.25" fill="none" stroke="#4f8976" stroke-width="1.2" stroke-linecap="round" stroke-linejoin="round" /></g><g id="leaf-190"><path d="M191 254Q189.84390950216007 244.71366839054278 176 240Q178.65609049783993 250.68633160945723 191 254Z" fill="#79ad92" stroke="#2b5662" stroke-width="2" stroke-linecap="round" stroke-linejoin="round" /><path d="M191 254L178.25 242.1" fill="none" stroke="#4f8976" stroke-width="1.2" stroke-linecap="round" stroke-linejoin="round" /></g><g id="leaf-191"><path d="M191 249Q200.4926406871193 247.9926406871193 206 234Q195.0073593128807 236.5073593128807 191 249Z" fill="#79ad92" stroke="#2b5662" stroke-width="2" stroke-linecap="round" stroke-linejoin="round" /><path d="M191 249L203.75 236.25" fill="none" stroke="#4f8976" stroke-width="1.2" stroke-linecap="round" stroke-linejoin="round" /></g><g id="leaf-192"><path d="M191 242Q189.84390950216007 232.71366839054278 176 228Q178.65609049783993 238.68633160945723 191 242Z" fill="#79ad92" stroke="#2b5662" stroke-width="2" stroke-linecap="round" stroke-linejoin="round" /><path d="M191 242L178.25 230.1" fill="none" stroke="#4f8976" stroke-width="1.2" stroke-linecap="round" stroke-linejoin="round" /></g><g id="leaf-193"><path d="M191 237Q200.4926406871193 235.9926406871193 206 222Q195.0073593128807 224.5073593128807 191 237Z" fill="#79ad92" stroke="#2b5662" stroke-width="2" stroke-linecap="round" stroke-linejoin="round" /><path d="M191 237L203.75 224.25" fill="none" stroke="#4f8976" stroke-width="1.2" stroke-linecap="round" stroke-linejoin="round" /></g><g id="leaf-194"><path d="M191 230Q189.84390950216007 220.71366839054278 176 216Q178.65609049783993 226.68633160945723 191 230Z" fill="#79ad92" stroke="#2b5662" stroke-width="2" stroke-linecap="round" stroke-linejoin="round" /><path d="M191 230L178.25 218.1" fill="none" stroke="#4f8976" stroke-width="1.2" stroke-linecap="round" stroke-linejoin="round" /></g><g id="leaf-195"><path d="M191 225Q200.4926406871193 223.9926406871193 206 210Q195.0073593128807 212.5073593128807 191 225Z" fill="#79ad92" stroke="#2b5662" stroke-width="2" stroke-linecap="round" stroke-linejoin="round" /><path d="M191 225L203.75 212.25" fill="none" stroke="#4f8976" stroke-width="1.2" stroke-linecap="round" stroke-linejoin="round" /></g></g><g id="moss-shoot-206"><g id="stem-197"><path d="M221 274L218 199" fill="none" stroke="#4f8976" stroke-width="3" stroke-linecap="round" stroke-linejoin="round" /></g><g id="leaf-198"><path d="M219 266Q217.84390950216007 256.7136683905428 204 252Q206.65609049783993 262.6863316094572 219 266Z" fill="#79ad92" stroke="#2b5662" stroke-width="2" stroke-linecap="round" stroke-linejoin="round" /><path d="M219 266L206.25 254.1" fill="none" stroke="#4f8976" stroke-width="1.2" stroke-linecap="round" stroke-linejoin="round" /></g><g id="leaf-199"><path d="M219 261Q228.4926406871193 259.99264068711926 234 246Q223.0073593128807 248.5073593128807 219 261Z" fill="#79ad92" stroke="#2b5662" stroke-width="2" stroke-linecap="round" stroke-linejoin="round" /><path d="M219 261L231.75 248.25" fill="none" stroke="#4f8976" stroke-width="1.2" stroke-linecap="round" stroke-linejoin="round" /></g><g id="leaf-200"><path d="M219 254Q217.84390950216007 244.71366839054278 204 240Q206.65609049783993 250.68633160945723 219 254Z" fill="#79ad92" stroke="#2b5662" stroke-width="2" stroke-linecap="round" stroke-linejoin="round" /><path d="M219 254L206.25 242.1" fill="none" stroke="#4f8976" stroke-width="1.2" stroke-linecap="round" stroke-linejoin="round" /></g><g id="leaf-201"><path d="M219 249Q228.4926406871193 247.9926406871193 234 234Q223.0073593128807 236.5073593128807 219 249Z" fill="#79ad92" stroke="#2b5662" stroke-width="2" stroke-linecap="round" stroke-linejoin="round" /><path d="M219 249L231.75 236.25" fill="none" stroke="#4f8976" stroke-width="1.2" stroke-linecap="round" stroke-linejoin="round" /></g><g id="leaf-202"><path d="M219 242Q217.84390950216007 232.71366839054278 204 228Q206.65609049783993 238.68633160945723 219 242Z" fill="#79ad92" stroke="#2b5662" stroke-width="2" stroke-linecap="round" stroke-linejoin="round" /><path d="M219 242L206.25 230.1" fill="none" stroke="#4f8976" stroke-width="1.2" stroke-linecap="round" stroke-linejoin="round" /></g><g id="leaf-203"><path d="M219 237Q228.4926406871193 235.9926406871193 234 222Q223.0073593128807 224.5073593128807 219 237Z" fill="#79ad92" stroke="#2b5662" stroke-width="2" stroke-linecap="round" stroke-linejoin="round" /><path d="M219 237L231.75 224.25" fill="none" stroke="#4f8976" stroke-width="1.2" stroke-linecap="round" stroke-linejoin="round" /></g><g id="leaf-204"><path d="M219 230Q217.84390950216007 220.71366839054278 204 216Q206.65609049783993 226.68633160945723 219 230Z" fill="#79ad92" stroke="#2b5662" stroke-width="2" stroke-linecap="round" stroke-linejoin="round" /><path d="M219 230L206.25 218.1" fill="none" stroke="#4f8976" stroke-width="1.2" stroke-linecap="round" stroke-linejoin="round" /></g><g id="leaf-205"><path d="M219 225Q228.4926406871193 223.9926406871193 234 210Q223.0073593128807 212.5073593128807 219 225Z" fill="#79ad92" stroke="#2b5662" stroke-width="2" stroke-linecap="round" stroke-linejoin="round" /><path d="M219 225L231.75 212.25" fill="none" stroke="#4f8976" stroke-width="1.2" stroke-linecap="round" stroke-linejoin="round" /></g></g><g id="moss-shoot-216"><g id="stem-207"><path d="M249 274L246 227" fill="none" stroke="#4f8976" stroke-width="3" stroke-linecap="round" stroke-linejoin="round" /></g><g id="leaf-208"><path d="M247 266Q245.84390950216007 256.7136683905428 232 252Q234.65609049783993 262.6863316094572 247 266Z" fill="#79ad92" stroke="#2b5662" stroke-width="2" stroke-linecap="round" stroke-linejoin="round" /><path d="M247 266L234.25 254.1" fill="none" stroke="#4f8976" stroke-width="1.2" stroke-linecap="round" stroke-linejoin="round" /></g><g id="leaf-209"><path d="M247 261Q256.49264068711926 259.99264068711926 262 246Q251.0073593128807 248.5073593128807 247 261Z" fill="#79ad92" stroke="#2b5662" stroke-width="2" stroke-linecap="round" stroke-linejoin="round" /><path d="M247 261L259.75 248.25" fill="none" stroke="#4f8976" stroke-width="1.2" stroke-linecap="round" stroke-linejoin="round" /></g><g id="leaf-210"><path d="M247 254Q245.84390950216007 244.71366839054278 232 240Q234.65609049783993 250.68633160945723 247 254Z" fill="#79ad92" stroke="#2b5662" stroke-width="2" stroke-linecap="round" stroke-linejoin="round" /><path d="M247 254L234.25 242.1" fill="none" stroke="#4f8976" stroke-width="1.2" stroke-linecap="round" stroke-linejoin="round" /></g><g id="leaf-211"><path d="M247 249Q256.49264068711926 247.9926406871193 262 234Q251.0073593128807 236.5073593128807 247 249Z" fill="#79ad92" stroke="#2b5662" stroke-width="2" stroke-linecap="round" stroke-linejoin="round" /><path d="M247 249L259.75 236.25" fill="none" stroke="#4f8976" stroke-width="1.2" stroke-linecap="round" stroke-linejoin="round" /></g><g id="leaf-212"><path d="M247 242Q245.84390950216007 232.71366839054278 232 228Q234.65609049783993 238.68633160945723 247 242Z" fill="#79ad92" stroke="#2b5662" stroke-width="2" stroke-linecap="round" stroke-linejoin="round" /><path d="M247 242L234.25 230.1" fill="none" stroke="#4f8976" stroke-width="1.2" stroke-linecap="round" stroke-linejoin="round" /></g><g id="leaf-213"><path d="M247 237Q256.49264068711926 235.9926406871193 262 222Q251.0073593128807 224.5073593128807 247 237Z" fill="#79ad92" stroke="#2b5662" stroke-width="2" stroke-linecap="round" stroke-linejoin="round" /><path d="M247 237L259.75 224.25" fill="none" stroke="#4f8976" stroke-width="1.2" stroke-linecap="round" stroke-linejoin="round" /></g><g id="leaf-214"><path d="M247 230Q245.84390950216007 220.71366839054278 232 216Q234.65609049783993 226.68633160945723 247 230Z" fill="#79ad92" stroke="#2b5662" stroke-width="2" stroke-linecap="round" stroke-linejoin="round" /><path d="M247 230L234.25 218.1" fill="none" stroke="#4f8976" stroke-width="1.2" stroke-linecap="round" stroke-linejoin="round" /></g><g id="leaf-215"><path d="M247 225Q256.49264068711926 223.9926406871193 262 210Q251.0073593128807 212.5073593128807 247 225Z" fill="#79ad92" stroke="#2b5662" stroke-width="2" stroke-linecap="round" stroke-linejoin="round" /><path d="M247 225L259.75 212.25" fill="none" stroke="#4f8976" stroke-width="1.2" stroke-linecap="round" stroke-linejoin="round" /></g></g><g id="moss-shoot-226"><g id="stem-217"><path d="M277 274L274 213" fill="none" stroke="#4f8976" stroke-width="3" stroke-linecap="round" stroke-linejoin="round" /></g><g id="leaf-218"><path d="M275 266Q273.84390950216005 256.7136683905428 260 252Q262.65609049783995 262.6863316094572 275 266Z" fill="#79ad92" stroke="#2b5662" stroke-width="2" stroke-linecap="round" stroke-linejoin="round" /><path d="M275 266L262.25 254.1" fill="none" stroke="#4f8976" stroke-width="1.2" stroke-linecap="round" stroke-linejoin="round" /></g><g id="leaf-219"><path d="M275 261Q284.49264068711926 259.99264068711926 290 246Q279.00735931288074 248.5073593128807 275 261Z" fill="#79ad92" stroke="#2b5662" stroke-width="2" stroke-linecap="round" stroke-linejoin="round" /><path d="M275 261L287.75 248.25" fill="none" stroke="#4f8976" stroke-width="1.2" stroke-linecap="round" stroke-linejoin="round" /></g><g id="leaf-220"><path d="M275 254Q273.84390950216005 244.71366839054278 260 240Q262.65609049783995 250.68633160945723 275 254Z" fill="#79ad92" stroke="#2b5662" stroke-width="2" stroke-linecap="round" stroke-linejoin="round" /><path d="M275 254L262.25 242.1" fill="none" stroke="#4f8976" stroke-width="1.2" stroke-linecap="round" stroke-linejoin="round" /></g><g id="leaf-221"><path d="M275 249Q284.49264068711926 247.9926406871193 290 234Q279.00735931288074 236.5073593128807 275 249Z" fill="#79ad92" stroke="#2b5662" stroke-width="2" stroke-linecap="round" stroke-linejoin="round" /><path d="M275 249L287.75 236.25" fill="none" stroke="#4f8976" stroke-width="1.2" stroke-linecap="round" stroke-linejoin="round" /></g><g id="leaf-222"><path d="M275 242Q273.84390950216005 232.71366839054278 260 228Q262.65609049783995 238.68633160945723 275 242Z" fill="#79ad92" stroke="#2b5662" stroke-width="2" stroke-linecap="round" stroke-linejoin="round" /><path d="M275 242L262.25 230.1" fill="none" stroke="#4f8976" stroke-width="1.2" stroke-linecap="round" stroke-linejoin="round" /></g><g id="leaf-223"><path d="M275 237Q284.49264068711926 235.9926406871193 290 222Q279.00735931288074 224.5073593128807 275 237Z" fill="#79ad92" stroke="#2b5662" stroke-width="2" stroke-linecap="round" stroke-linejoin="round" /><path d="M275 237L287.75 224.25" fill="none" stroke="#4f8976" stroke-width="1.2" stroke-linecap="round" stroke-linejoin="round" /></g><g id="leaf-224"><path d="M275 230Q273.84390950216005 220.71366839054278 260 216Q262.65609049783995 226.68633160945723 275 230Z" fill="#79ad92" stroke="#2b5662" stroke-width="2" stroke-linecap="round" stroke-linejoin="round" /><path d="M275 230L262.25 218.1" fill="none" stroke="#4f8976" stroke-width="1.2" stroke-linecap="round" stroke-linejoin="round" /></g><g id="leaf-225"><path d="M275 225Q284.49264068711926 223.9926406871193 290 210Q279.00735931288074 212.5073593128807 275 225Z" fill="#79ad92" stroke="#2b5662" stroke-width="2" stroke-linecap="round" stroke-linejoin="round" /><path d="M275 225L287.75 212.25" fill="none" stroke="#4f8976" stroke-width="1.2" stroke-linecap="round" stroke-linejoin="round" /></g></g><g id="moss-shoot-236"><g id="stem-227"><path d="M305 274L302 199" fill="none" stroke="#4f8976" stroke-width="3" stroke-linecap="round" stroke-linejoin="round" /></g><g id="leaf-228"><path d="M303 266Q301.84390950216005 256.7136683905428 288 252Q290.65609049783995 262.6863316094572 303 266Z" fill="#79ad92" stroke="#2b5662" stroke-width="2" stroke-linecap="round" stroke-linejoin="round" /><path d="M303 266L290.25 254.1" fill="none" stroke="#4f8976" stroke-width="1.2" stroke-linecap="round" stroke-linejoin="round" /></g><g id="leaf-229"><path d="M303 261Q312.49264068711926 259.99264068711926 318 246Q307.00735931288074 248.5073593128807 303 261Z" fill="#79ad92" stroke="#2b5662" stroke-width="2" stroke-linecap="round" stroke-linejoin="round" /><path d="M303 261L315.75 248.25" fill="none" stroke="#4f8976" stroke-width="1.2" stroke-linecap="round" stroke-linejoin="round" /></g><g id="leaf-230"><path d="M303 254Q301.84390950216005 244.71366839054278 288 240Q290.65609049783995 250.68633160945723 303 254Z" fill="#79ad92" stroke="#2b5662" stroke-width="2" stroke-linecap="round" stroke-linejoin="round" /><path d="M303 254L290.25 242.1" fill="none" stroke="#4f8976" stroke-width="1.2" stroke-linecap="round" stroke-linejoin="round" /></g><g id="leaf-231"><path d="M303 249Q312.49264068711926 247.9926406871193 318 234Q307.00735931288074 236.5073593128807 303 249Z" fill="#79ad92" stroke="#2b5662" stroke-width="2" stroke-linecap="round" stroke-linejoin="round" /><path d="M303 249L315.75 236.25" fill="none" stroke="#4f8976" stroke-width="1.2" stroke-linecap="round" stroke-linejoin="round" /></g><g id="leaf-232"><path d="M303 242Q301.84390950216005 232.71366839054278 288 228Q290.65609049783995 238.68633160945723 303 242Z" fill="#79ad92" stroke="#2b5662" stroke-width="2" stroke-linecap="round" stroke-linejoin="round" /><path d="M303 242L290.25 230.1" fill="none" stroke="#4f8976" stroke-width="1.2" stroke-linecap="round" stroke-linejoin="round" /></g><g id="leaf-233"><path d="M303 237Q312.49264068711926 235.9926406871193 318 222Q307.00735931288074 224.5073593128807 303 237Z" fill="#79ad92" stroke="#2b5662" stroke-width="2" stroke-linecap="round" stroke-linejoin="round" /><path d="M303 237L315.75 224.25" fill="none" stroke="#4f8976" stroke-width="1.2" stroke-linecap="round" stroke-linejoin="round" /></g><g id="leaf-234"><path d="M303 230Q301.84390950216005 220.71366839054278 288 216Q290.65609049783995 226.68633160945723 303 230Z" fill="#79ad92" stroke="#2b5662" stroke-width="2" stroke-linecap="round" stroke-linejoin="round" /><path d="M303 230L290.25 218.1" fill="none" stroke="#4f8976" stroke-width="1.2" stroke-linecap="round" stroke-linejoin="round" /></g><g id="leaf-235"><path d="M303 225Q312.49264068711926 223.9926406871193 318 210Q307.00735931288074 212.5073593128807 303 225Z" fill="#79ad92" stroke="#2b5662" stroke-width="2" stroke-linecap="round" stroke-linejoin="round" /><path d="M303 225L315.75 212.25" fill="none" stroke="#4f8976" stroke-width="1.2" stroke-linecap="round" stroke-linejoin="round" /></g></g><g id="sporophyte-238"><path d="M133 233Q143 152 135 80" fill="none" stroke="#987d59" stroke-width="3" stroke-linecap="round" stroke-linejoin="round" /><g id="capsule-237"><ellipse cx="134" cy="69" rx="11" ry="20" fill="#e8ad66" stroke="#2b5662" stroke-width="2" /><path d="M124 58L134 49L144 58Z" fill="#4f8976" stroke="#2b5662" stroke-width="2" stroke-linecap="round" stroke-linejoin="round" /></g></g><g id="sporophyte-240"><path d="M203 233Q213 152 205 113" fill="none" stroke="#987d59" stroke-width="3" stroke-linecap="round" stroke-linejoin="round" /><g id="capsule-239"><ellipse cx="204" cy="102" rx="11" ry="20" fill="#e8ad66" stroke="#2b5662" stroke-width="2" /><path d="M194 91L204 82L214 91Z" fill="#4f8976" stroke="#2b5662" stroke-width="2" stroke-linecap="round" stroke-linejoin="round" /></g></g><g id="sporophyte-242"><path d="M258 233Q268 152 260 91" fill="none" stroke="#987d59" stroke-width="3" stroke-linecap="round" stroke-linejoin="round" /><g id="capsule-241"><ellipse cx="259" cy="80" rx="11" ry="20" fill="#e8ad66" stroke="#2b5662" stroke-width="2" /><path d="M249 69L259 60L269 69Z" fill="#4f8976" stroke="#2b5662" stroke-width="2" stroke-linecap="round" stroke-linejoin="round" /></g></g></g></svg>