<svg xmlns="http://www.w3.org/2000/svg" width="800" height="640" viewBox="0 0 400 320"><title>卫生填埋场剖面</title><desc>废物体、覆盖层、衬层、渗滤液收集与集气井。</desc><g id="waste_solid" stroke-linecap="round" stroke-linejoin="round"><g id="landfill-excavation" ><path d="M39 131L94 131L119 221Q204 267 285 221L311 131L361 131L361 276L39 276Z" fill="#e9d2a8" stroke="#2b5662" stroke-width="2" /></g><g id="impermeable-liner" ><path d="M94 137L118 225Q205 271 287 225L311 137" fill="none" stroke="#a99cc7" stroke-width="7" /></g><g id="waste-body" ><path d="M104 141Q201 80 301 141L279 214Q204 257 124 214Z" fill="#d8e4e6" stroke="#2b5662" stroke-width="2" /><path d="M114 164Q204 134 291 164L282 192Q204 164 122 193Z" fill="#b9c9cc" stroke="#2b5662" stroke-width="0" /></g><g id="landfill-cover" ><path d="M103 142Q201 80 302 142L307 133Q203 65 98 133Z" fill="#79ad92" stroke="#2b5662" stroke-width="2" /></g><g id="leachate-collection" ><g id="drainage-pipe" ><path d="M125 232Q201 270 282 232L345 232L345 203" fill="none" stroke="#2b5662" stroke-width="10" /><path d="M125 232Q201 270 282 232L345 232L345 203" fill="none" stroke="#d8e4e6" stroke-width="6" /></g><rect x="326" y="185" width="35" height="18" rx="2" fill="#86b7d3" stroke="#2b5662" stroke-width="2" /></g><g id="gas-collection" ><g id="gas-well" ><path d="M198 218L198 73L257 73L257 94" fill="none" stroke="#2b5662" stroke-width="10" /><path d="M198 218L198 73L257 73L257 94" fill="none" stroke="#d8e4e6" stroke-width="6" /></g><rect x="248" y="94" width="19" height="25" rx="3" fill="#e8ad66" stroke="#2b5662" stroke-width="2" /></g><g id="waste-pieces" ><rect x="140" y="151" width="17" height="12" rx="1" fill="#e8ad66" stroke="#2b5662" stroke-width="1" /><path d="M216 149l18 -5l6 16l-22 3Z" fill="#a99cc7" stroke="#2b5662" stroke-width="1" /><rect x="169" y="195" width="18" height="12" rx="2" fill="#e9d2a8" stroke="#2b5662" stroke-width="1" /></g></g></svg>