<svg xmlns="http://www.w3.org/2000/svg" width="800" height="640" viewBox="0 0 400 320"><title>地下水渗透反应墙</title><desc>污染羽穿过反应介质墙，上下游监测井独立。</desc><g id="waste_remediation" stroke-linecap="round" stroke-linejoin="round"><g id="aquifer-section" ><rect x="38" y="139" width="324" height="139" rx="0" fill="#e9d2a8" stroke="#2b5662" stroke-width="2" /><rect x="38" y="184" width="324" height="67" rx="0" fill="#86b7d3" stroke="#2b5662" stroke-width="1" /><rect x="38" y="251" width="324" height="27" rx="0" fill="#a99cc7" stroke="#2b5662" stroke-width="1" /></g><g id="contaminant-plume" ><path d="M43 202C99 178 146 194 206 198L207 236C141 228 87 246 43 230Z" fill="#e8ad66" stroke="#2b5662" stroke-width="1" opacity=".7"/><ellipse cx="72" cy="211" rx="3" ry="3" fill="#b49478" stroke="#2b5662" stroke-width="0" /><ellipse cx="107" cy="219" rx="3" ry="3" fill="#b49478" stroke="#2b5662" stroke-width="0" /><ellipse cx="145" cy="210" rx="3" ry="3" fill="#b49478" stroke="#2b5662" stroke-width="0" /><ellipse cx="179" cy="217" rx="3" ry="3" fill="#b49478" stroke="#2b5662" stroke-width="0" /></g><g id="permeable-reactive-barrier" ><rect x="211" y="151" width="28" height="100" rx="2" fill="#79ad92" stroke="#2b5662" stroke-width="2" /><ellipse cx="219" cy="169" rx="4" ry="3" fill="#4f846e" stroke="#2b5662" stroke-width="1" /><ellipse cx="231" cy="180" rx="4" ry="3" fill="#4f846e" stroke="#2b5662" stroke-width="1" /><ellipse cx="220" cy="191" rx="4" ry="3" fill="#4f846e" stroke="#2b5662" stroke-width="1" /><ellipse cx="231" cy="201" rx="4" ry="3" fill="#4f846e" stroke="#2b5662" stroke-width="1" /><ellipse cx="219" cy="213" rx="4" ry="3" fill="#4f846e" stroke="#2b5662" stroke-width="1" /><ellipse cx="231" cy="225" rx="4" ry="3" fill="#4f846e" stroke="#2b5662" stroke-width="1" /><ellipse cx="219" cy="238" rx="4" ry="3" fill="#4f846e" stroke="#2b5662" stroke-width="1" /></g><g id="groundwater-flow" ><path d="M114 203L176 203" fill="none" stroke="#58a6b3" stroke-width="3" /><path d="M177.5000 203.0000L165.5000 209.0000L165.5000 197.0000Z" fill="#58a6b3" stroke="none" stroke-width="0" /><path d="M265 204L335 204" fill="none" stroke="#58a6b3" stroke-width="3" /><path d="M336.5000 204.0000L324.5000 210.0000L324.5000 198.0000Z" fill="#58a6b3" stroke="none" stroke-width="0" /></g><g id="monitoring-wells" ><g id="upgradient-well" ><path d="M81 225L81 121" fill="none" stroke="#2b5662" stroke-width="10" /><path d="M81 225L81 121" fill="none" stroke="#d8e4e6" stroke-width="6" /></g><g id="downgradient-well" ><path d="M308 225L308 121" fill="none" stroke="#2b5662" stroke-width="10" /><path d="M308 225L308 121" fill="none" stroke="#d8e4e6" stroke-width="6" /></g><rect x="73" y="112" width="16" height="10" rx="2" fill="#d8e4e6" stroke="#2b5662" stroke-width="2" /><rect x="300" y="112" width="16" height="10" rx="2" fill="#d8e4e6" stroke="#2b5662" stroke-width="2" /></g><g id="ground-surface" ><path d="M38 139L362 139" fill="none" stroke="#79ad92" stroke-width="6" /><g id="surface-grass-a" transform="translate(139 136) scale(0.5)"><path d="M0 0Q-12 -25 -19 -27Q-5 -20 0 0Q-3 -38 3 -45Q8 -25 0 0Q14 -32 23 -30Q12 -15 0 0" fill="#79ad92" stroke="#2b5662" stroke-width="1.3" /></g><g id="surface-grass-b" transform="translate(279 136) scale(0.55)"><path d="M0 0Q-12 -25 -19 -27Q-5 -20 0 0Q-3 -38 3 -45Q8 -25 0 0Q14 -32 23 -30Q12 -15 0 0" fill="#79ad92" stroke="#2b5662" stroke-width="1.3" /></g></g><g id="barrier-label" ><text x="226" y="102" font-family="Arial, sans-serif" font-size="12" text-anchor="middle" fill="#2b5662">Reactive barrier</text><path d="M226 109L226 145" fill="none" stroke="#2b5662" stroke-width="1" /></g></g></svg>