<svg xmlns="http://www.w3.org/2000/svg" width="900" height="720" viewBox="225 125 350 405"><title>黑园蚁 · Lasius niger</title><desc>ScanSci · CC BY 4.0. Original editable illustration based on checked species photographs. Adult external morphology; wing venation and surface texture simplified.</desc><defs><linearGradient id="amber" x1="0" y1="0" x2="1" y2=".8"><stop stop-color="#edd39a"/><stop offset=".5" stop-color="#bf8e47"/><stop offset="1" stop-color="#795a31"/></linearGradient><linearGradient id="green" x2="1" y2=".4"><stop stop-color="#b4bd77"/><stop offset=".45" stop-color="#75985d"/><stop offset="1" stop-color="#3e694c"/></linearGradient><linearGradient id="dark" x2="1" y2="1"><stop stop-color="#646759"/><stop offset=".5" stop-color="#3b4139"/><stop offset="1" stop-color="#1e2826"/></linearGradient><linearGradient id="brown" x2="1" y2=".7"><stop stop-color="#b69c6f"/><stop offset=".5" stop-color="#806447"/><stop offset="1" stop-color="#493e30"/></linearGradient></defs><g id="ant"><g id="left-leg-1"><path d="M382 269 323 243 273 205 248 198" fill="none" stroke="#695b40" stroke-width="6" stroke-linecap="round" stroke-linejoin="round" /><path d="M382 269 323 243 273 205 248 198" fill="none" stroke="#a39770" stroke-width="1.4" stroke-linecap="round" stroke-linejoin="round" /></g><g id="left-leg-2"><path d="M377 296 313 324 277 371 246 384" fill="none" stroke="#695b40" stroke-width="6" stroke-linecap="round" stroke-linejoin="round" /><path d="M377 296 313 324 277 371 246 384" fill="none" stroke="#a39770" stroke-width="1.4" stroke-linecap="round" stroke-linejoin="round" /></g><g id="left-leg-3"><path d="M385 321 337 386 332 441 306 482" fill="none" stroke="#695b40" stroke-width="6" stroke-linecap="round" stroke-linejoin="round" /><path d="M385 321 337 386 332 441 306 482" fill="none" stroke="#a39770" stroke-width="1.4" stroke-linecap="round" stroke-linejoin="round" /></g><g id="right-leg-1" transform="translate(800 0) scale(-1 1)"><path d="M382 269 323 243 273 205 248 198" fill="none" stroke="#695b40" stroke-width="6" stroke-linecap="round" stroke-linejoin="round" /><path d="M382 269 323 243 273 205 248 198" fill="none" stroke="#a39770" stroke-width="1.4" stroke-linecap="round" stroke-linejoin="round" /></g><g id="right-leg-2" transform="translate(800 0) scale(-1 1)"><path d="M377 296 313 324 277 371 246 384" fill="none" stroke="#695b40" stroke-width="6" stroke-linecap="round" stroke-linejoin="round" /><path d="M377 296 313 324 277 371 246 384" fill="none" stroke="#a39770" stroke-width="1.4" stroke-linecap="round" stroke-linejoin="round" /></g><g id="right-leg-3" transform="translate(800 0) scale(-1 1)"><path d="M385 321 337 386 332 441 306 482" fill="none" stroke="#695b40" stroke-width="6" stroke-linecap="round" stroke-linejoin="round" /><path d="M385 321 337 386 332 441 306 482" fill="none" stroke="#a39770" stroke-width="1.4" stroke-linecap="round" stroke-linejoin="round" /></g><g id="gaster"><path d="M386 365Q343 379 346 436Q350 489 400 506Q450 489 454 436Q457 379 414 365Z" fill="url(#dark)" /><path d="M352 418Q400 437 448 418M352 447Q400 466 448 447" fill="none" stroke="#727360" stroke-width="2" stroke-linecap="round" stroke-linejoin="round" /><path d="M368 390Q358 416 365 438" fill="#8e8c71" opacity=".35"/></g><g id="petiole"><path d="M387 349Q387 330 400 330Q413 330 413 349L411 370 389 370Z" fill="#635a3e" /><ellipse cx="400" cy="346" rx="10" ry="14" fill="#454637" /></g><g id="mesosoma"><path d="M381 235Q367 248 371 273Q365 286 377 308L385 333 413 333Q421 308 424 294Q435 278 424 264Q425 244 413 235Z" fill="url(#dark)" /><path d="M377 275Q400 284 424 275" fill="none" stroke="#877d5b" stroke-width="2" stroke-linecap="round" stroke-linejoin="round" /></g><g id="head"><path d="M364 184Q373 160 400 163Q427 160 436 184L431 221Q420 244 400 242Q380 244 369 221Z" fill="url(#dark)" /><ellipse cx="366" cy="201" rx="7" ry="10" fill="#161f1c" /><ellipse cx="434" cy="201" rx="7" ry="10" fill="#161f1c" /><path d="M388 168 382 153 394 158 400 170 406 158 418 153 412 168Z" fill="#886d43" /></g><g id="antennae"><path d="M379 181 349 146 305 166M421 181 451 146 495 166" fill="none" stroke="#866b40" stroke-width="5" stroke-linecap="round" stroke-linejoin="round" /><path d="M352 146 310 166M448 146 490 166" fill="none" stroke="#b3955b" stroke-width="1.5" stroke-linecap="round" stroke-linejoin="round" /></g></g></svg>