<svg xmlns="http://www.w3.org/2000/svg" width="900" height="720" viewBox="265 135 270 400"><title>黑蚱蝉 · Cryptotympana atrata</title><desc>ScanSci · CC BY 4.0. Original editable illustration based on checked species photographs. Adult external morphology; wing venation and surface texture simplified.</desc><defs><linearGradient id="amber" x1="0" y1="0" x2="1" y2=".8"><stop stop-color="#edd39a"/><stop offset=".5" stop-color="#bf8e47"/><stop offset="1" stop-color="#795a31"/></linearGradient><linearGradient id="green" x2="1" y2=".4"><stop stop-color="#b4bd77"/><stop offset=".45" stop-color="#75985d"/><stop offset="1" stop-color="#3e694c"/></linearGradient><linearGradient id="dark" x2="1" y2="1"><stop stop-color="#646759"/><stop offset=".5" stop-color="#3b4139"/><stop offset="1" stop-color="#1e2826"/></linearGradient><linearGradient id="brown" x2="1" y2=".7"><stop stop-color="#b69c6f"/><stop offset=".5" stop-color="#806447"/><stop offset="1" stop-color="#493e30"/></linearGradient></defs><g id="cicada"><g id="left-leg-1"><path d="M373 256 323 244 307 210" fill="none" stroke="#414c3d" stroke-width="6" stroke-linecap="round" stroke-linejoin="round" /><path d="M373 256 323 244 307 210" fill="none" stroke="#a39770" stroke-width="1.4" stroke-linecap="round" stroke-linejoin="round" /></g><g id="left-leg-2"><path d="M365 287 305 320 290 373" fill="none" stroke="#414c3d" stroke-width="6" stroke-linecap="round" stroke-linejoin="round" /><path d="M365 287 305 320 290 373" fill="none" stroke="#a39770" stroke-width="1.4" stroke-linecap="round" stroke-linejoin="round" /></g><g id="left-leg-3"><path d="M376 319 328 398 320 456" fill="none" stroke="#414c3d" stroke-width="6" stroke-linecap="round" stroke-linejoin="round" /><path d="M376 319 328 398 320 456" fill="none" stroke="#a39770" stroke-width="1.4" stroke-linecap="round" stroke-linejoin="round" /></g><g id="right-leg-1" transform="translate(800 0) scale(-1 1)"><path d="M373 256 323 244 307 210" fill="none" stroke="#414c3d" stroke-width="6" stroke-linecap="round" stroke-linejoin="round" /><path d="M373 256 323 244 307 210" fill="none" stroke="#a39770" stroke-width="1.4" stroke-linecap="round" stroke-linejoin="round" /></g><g id="right-leg-2" transform="translate(800 0) scale(-1 1)"><path d="M365 287 305 320 290 373" fill="none" stroke="#414c3d" stroke-width="6" stroke-linecap="round" stroke-linejoin="round" /><path d="M365 287 305 320 290 373" fill="none" stroke="#a39770" stroke-width="1.4" stroke-linecap="round" stroke-linejoin="round" /></g><g id="right-leg-3" transform="translate(800 0) scale(-1 1)"><path d="M376 319 328 398 320 456" fill="none" stroke="#414c3d" stroke-width="6" stroke-linecap="round" stroke-linejoin="round" /><path d="M376 319 328 398 320 456" fill="none" stroke="#a39770" stroke-width="1.4" stroke-linecap="round" stroke-linejoin="round" /></g><g id="abdomen"><path d="M367 311Q348 359 370 439L400 477 430 439Q452 359 433 311Z" fill="url(#dark)" /><path d="M366 340Q400 351 434 340" fill="none" stroke="#827d57" stroke-width="2" stroke-linecap="round" stroke-linejoin="round" /><path d="M366 362Q400 373 434 362" fill="none" stroke="#827d57" stroke-width="2" stroke-linecap="round" stroke-linejoin="round" /><path d="M366 384Q400 395 434 384" fill="none" stroke="#827d57" stroke-width="2" stroke-linecap="round" stroke-linejoin="round" /><path d="M366 406Q400 417 434 406" fill="none" stroke="#827d57" stroke-width="2" stroke-linecap="round" stroke-linejoin="round" /><path d="M366 428Q400 439 434 428" fill="none" stroke="#827d57" stroke-width="2" stroke-linecap="round" stroke-linejoin="round" /></g><g id="left-forewing-layer"><g id="left-forewing"><defs><clipPath id="left-forewing-clip"><path d="M373 261Q316 285 296 375Q280 444 316 496Q332 516 349 491Q382 415 397 305Z" fill="none" /></clipPath></defs><path d="M373 261Q316 285 296 375Q280 444 316 496Q332 516 349 491Q382 415 397 305Z" fill="#cad4bc" stroke="#727d70" stroke-width="1.5" stroke-linecap="round" stroke-linejoin="round" fill-opacity=".38"/><g clip-path="url(#left-forewing-clip)"><path d="M373 277Q331 349 316 483" fill="none" stroke="#8f9984" stroke-width="1.15" stroke-linecap="round" stroke-linejoin="round" /><path d="M373 292 349 350 355 411 334 483" fill="none" stroke="#8f9984" stroke-width="1.15" stroke-linecap="round" stroke-linejoin="round" /><path d="M354 320 316 344 306 391" fill="none" stroke="#8f9984" stroke-width="1.15" stroke-linecap="round" stroke-linejoin="round" /><path d="M351 352 327 377 313 428 316 480" fill="none" stroke="#8f9984" stroke-width="1.15" stroke-linecap="round" stroke-linejoin="round" /><path d="M353 411 335 425 331 475" fill="none" stroke="#8f9984" stroke-width="1.15" stroke-linecap="round" stroke-linejoin="round" /><path d="M372 355 354 374" fill="none" stroke="#8f9984" stroke-width="1.15" stroke-linecap="round" stroke-linejoin="round" /><path d="M360 393 346 403" fill="none" stroke="#8f9984" stroke-width="1.15" stroke-linecap="round" stroke-linejoin="round" /><path d="M341 457 321 459" fill="none" stroke="#8f9984" stroke-width="1.15" stroke-linecap="round" stroke-linejoin="round" /></g></g><path d="M373 268Q312 340 303 425" fill="none" stroke="#a39663" stroke-width="2" stroke-linecap="round" stroke-linejoin="round" /></g><g id="right-forewing-layer" transform="translate(800 0) scale(-1 1)"><g id="right-forewing"><defs><clipPath id="right-forewing-clip"><path d="M373 261Q316 285 296 375Q280 444 316 496Q332 516 349 491Q382 415 397 305Z" fill="none" /></clipPath></defs><path d="M373 261Q316 285 296 375Q280 444 316 496Q332 516 349 491Q382 415 397 305Z" fill="#cad4bc" stroke="#727d70" stroke-width="1.5" stroke-linecap="round" stroke-linejoin="round" fill-opacity=".38"/><g clip-path="url(#right-forewing-clip)"><path d="M373 277Q331 349 316 483" fill="none" stroke="#8f9984" stroke-width="1.15" stroke-linecap="round" stroke-linejoin="round" /><path d="M373 292 349 350 355 411 334 483" fill="none" stroke="#8f9984" stroke-width="1.15" stroke-linecap="round" stroke-linejoin="round" /><path d="M354 320 316 344 306 391" fill="none" stroke="#8f9984" stroke-width="1.15" stroke-linecap="round" stroke-linejoin="round" /><path d="M351 352 327 377 313 428 316 480" fill="none" stroke="#8f9984" stroke-width="1.15" stroke-linecap="round" stroke-linejoin="round" /><path d="M353 411 335 425 331 475" fill="none" stroke="#8f9984" stroke-width="1.15" stroke-linecap="round" stroke-linejoin="round" /><path d="M372 355 354 374" fill="none" stroke="#8f9984" stroke-width="1.15" stroke-linecap="round" stroke-linejoin="round" /><path d="M360 393 346 403" fill="none" stroke="#8f9984" stroke-width="1.15" stroke-linecap="round" stroke-linejoin="round" /><path d="M341 457 321 459" fill="none" stroke="#8f9984" stroke-width="1.15" stroke-linecap="round" stroke-linejoin="round" /></g></g><path d="M373 268Q312 340 303 425" fill="none" stroke="#a39663" stroke-width="2" stroke-linecap="round" stroke-linejoin="round" /></g><g id="thorax"><path d="M364 229Q400 215 436 229L442 270Q439 307 400 320Q361 307 358 270Z" fill="url(#dark)" /><path d="M365 240Q400 229 435 240L430 250Q400 241 370 250Z" fill="#837e52" /><path d="M383 259 375 281 390 299M417 259 425 281 410 299" fill="none" stroke="#928c5b" stroke-width="3" stroke-linecap="round" stroke-linejoin="round" /></g><g id="head"><path d="M355 197Q377 178 400 184Q423 178 445 197L437 224Q401 239 363 224Z" fill="#303c33" /><ellipse cx="355" cy="204" rx="12" ry="15" fill="#635f3c" /><ellipse cx="445" cy="204" rx="12" ry="15" fill="#635f3c" /><ellipse cx="393" cy="203" rx="3" ry="3" fill="#b28749" /><ellipse cx="407" cy="203" rx="3" ry="3" fill="#b28749" /><ellipse cx="400" cy="211" rx="3" ry="3" fill="#b28749" /></g><g id="antennae"><path d="M368 198 346 178 337 157M432 198 454 178 463 157" fill="none" stroke="#656b4c" stroke-width="2" stroke-linecap="round" stroke-linejoin="round" /></g></g></svg>